<svg width="59" height="59" viewBox="0 0 59 59" fill="none" xmlns="http://www.w3.org/2000/svg">
<path fill-rule="evenodd" clip-rule="evenodd" d="M29.5 59C45.7924 59 59 45.7924 59 29.5C59 13.2076 45.7924 0 29.5 0C13.2076 0 0 13.2076 0 29.5C0 45.7924 13.2076 59 29.5 59ZM40.54 43V38.6H27.34L34.82 31.48C36.6333 29.7733 37.86 28.2533 38.5 26.92C39.14 25.5867 39.46 24.16 39.46 22.64C39.46 20.16 38.5533 18.2 36.74 16.76C34.9267 15.32 32.5 14.6 29.46 14.6C27.1667 14.6 25.0867 15.0133 23.22 15.84C21.38 16.64 19.9133 17.7733 18.82 19.24L22.46 22.04C23.98 20.0933 26.1667 19.12 29.02 19.12C30.7267 19.12 32.02 19.4667 32.9 20.16C33.78 20.8533 34.22 21.8533 34.22 23.16C34.22 24.04 33.9933 24.9333 33.54 25.84C33.1133 26.72 32.2733 27.76 31.02 28.96L19.9 39.52V43H40.54Z" fill="#094972"/>
</svg>
