<svg width="59" height="59" viewBox="0 0 59 59" fill="none" xmlns="http://www.w3.org/2000/svg">
<path fill-rule="evenodd" clip-rule="evenodd" d="M29.5 59C45.7924 59 59 45.7924 59 29.5C59 13.2076 45.7924 0 29.5 0C13.2076 0 0 13.2076 0 29.5C0 45.7924 13.2076 59 29.5 59ZM38.1 29.2C36.74 27.76 34.7667 26.88 32.18 26.56L38.98 18.48V15H19.9V19.36H32.62L26.26 26.92V30.48H28.82C30.8733 30.48 32.3933 30.8533 33.38 31.6C34.3933 32.32 34.9 33.3333 34.9 34.64C34.9 35.9467 34.3667 36.9867 33.3 37.76C32.26 38.5067 30.82 38.88 28.98 38.88C27.4333 38.88 25.9267 38.64 24.46 38.16C23.02 37.6533 21.7933 36.9733 20.78 36.12L18.54 40.16C19.8467 41.1733 21.42 41.9733 23.26 42.56C25.1267 43.12 27.06 43.4 29.06 43.4C31.46 43.4 33.4867 43.0133 35.14 42.24C36.82 41.44 38.0733 40.3733 38.9 39.04C39.7267 37.7067 40.14 36.2267 40.14 34.6C40.14 32.44 39.46 30.64 38.1 29.2Z" fill="#094972"/>
</svg>
