<svg width="59" height="59" viewBox="0 0 59 59" fill="none" xmlns="http://www.w3.org/2000/svg">
<path fill-rule="evenodd" clip-rule="evenodd" d="M29.5 59C45.7924 59 59 45.7924 59 29.5C59 13.2076 45.7924 0 29.5 0C13.2076 0 0 13.2076 0 29.5C0 45.7924 13.2076 59 29.5 59ZM36.78 28.16C34.8867 26.6133 31.9667 25.84 28.02 25.84H25.34L25.94 19.36H37.98V15H21.54L20.1 30.24H26.86C29.6067 30.24 31.54 30.6133 32.66 31.36C33.8067 32.08 34.38 33.16 34.38 34.6C34.38 35.9333 33.8467 36.9867 32.78 37.76C31.74 38.5067 30.3 38.88 28.46 38.88C26.9133 38.88 25.4067 38.64 23.94 38.16C22.5 37.6533 21.26 36.9733 20.22 36.12L18.02 40.16C19.3 41.1733 20.8733 41.9733 22.74 42.56C24.6067 43.12 26.54 43.4 28.54 43.4C30.9667 43.4 33.0067 43 34.66 42.2C36.3133 41.4 37.5533 40.32 38.38 38.96C39.2067 37.6 39.62 36.08 39.62 34.4C39.62 31.76 38.6733 29.68 36.78 28.16Z" fill="#094972"/>
</svg>
