<svg width="165" height="33" viewBox="0 0 165 33" fill="none" xmlns="http://www.w3.org/2000/svg">
<path d="M9.55742 14.5422C9.42254 14.0132 9.29184 13.5312 9.17892 13.0439C9.09318 12.6769 8.86525 12.5295 8.50139 12.5368C8.02356 12.5462 7.54468 12.5368 6.99471 12.5368V21.856C7.20992 21.9013 7.42787 21.9324 7.64715 21.9491C8.74431 21.9574 9.84181 21.9574 10.9397 21.9491C11.5837 21.9491 11.6716 21.8445 11.7374 21.1889C11.842 20.1705 11.9685 19.1532 12.0908 18.0867H14.9327C15.009 20.043 15.0822 21.9156 15.1575 23.8635H0.585339C0.61357 23.2362 0.639709 22.658 0.670031 22.0055C1.16563 21.9125 1.60059 21.8058 2.04182 21.7556C2.5322 21.7002 2.73504 21.4681 2.734 20.9715C2.72772 14.9259 2.72772 8.88043 2.734 2.83492C2.734 2.34559 2.55311 2.09465 2.04182 2.06224C1.53054 2.02983 1.02657 1.93991 0.503784 1.87404V0.0055971C5.29879 -0.00381308 10.0279 0.000369222 14.8763 0.0055971C14.7341 1.9535 14.6044 3.74143 14.4716 5.55655H11.796C11.7542 4.34368 11.7134 3.17996 11.6705 1.94828H6.99158V10.6788H9.0409C9.21656 10.0515 9.38176 9.45968 9.55219 8.84907H11.3108V14.5443L9.55742 14.5422Z" fill="#4A5C5F"/>
<path d="M67.2951 32.1204V30.7068L68.7285 30.2551C68.9659 29.7459 68.9816 10.1372 68.7285 9.53601L67.0493 9.22234V7.70207L71.7189 7.03708C71.9029 7.66443 72.0681 8.21335 72.2626 8.86997C72.4313 8.74938 72.5907 8.61621 72.7394 8.47161C74.3736 6.60212 77.939 6.47351 79.6046 8.15794C80.3636 8.93566 80.882 9.91589 81.0977 10.981C81.7514 13.9151 81.7482 16.9576 81.0883 19.8903C80.4473 22.7489 78.1816 24.3968 75.2613 24.1657C74.6088 24.1134 73.9658 23.9357 73.3186 23.8154C73.1691 23.7882 73.0206 23.759 72.7237 23.7025C72.6693 25.9275 72.6672 28.0782 72.7237 30.2269L74.3611 30.7079C74.313 31.1909 74.268 31.6374 74.2189 32.1183L67.2951 32.1204ZM72.6892 16.0123C72.6892 17.5974 72.6892 19.1825 72.6892 20.7676C72.6892 21.5162 72.7634 21.649 73.5047 21.8006C74.0659 21.917 74.6381 21.9717 75.2111 21.9637C76.7795 21.9386 77.2134 21.4848 77.5218 19.9405C77.9035 18.0397 77.8282 16.1252 77.7905 14.2129C77.7631 13.3608 77.6617 12.5128 77.4873 11.6784C77.1402 9.91555 76.1479 9.23593 74.3757 9.467C73.2977 9.60815 72.6944 10.2763 72.6892 11.3616C72.6839 12.9122 72.6892 14.4628 72.6892 16.0123Z" fill="#4A5C5F"/>
<path d="M123.254 22.3799C123.217 22.886 123.184 23.3408 123.15 23.8615H117.817C117.792 23.5761 117.749 23.3084 117.749 23.0407C117.749 19.6081 117.755 16.1755 117.738 12.7429C117.726 12.2225 117.66 11.7049 117.539 11.1986C117.452 10.8214 117.248 10.4817 116.954 10.2291C116.661 9.97652 116.295 9.8242 115.909 9.79436C115.545 9.76283 115.179 9.77476 114.817 9.82991C114.436 9.8894 114.089 10.0841 113.84 10.3784C113.59 10.6727 113.455 11.0469 113.458 11.4328C113.453 14.7263 113.453 18.0195 113.458 21.3124C113.458 21.5006 113.492 21.6888 113.517 21.9649L115.066 22.3904V23.8605H107.977C108.006 23.3711 108.033 22.9038 108.062 22.3904C108.4 22.3047 108.678 22.2095 108.964 22.1666C109.512 22.0851 109.708 21.7996 109.705 21.2413C109.685 17.9477 109.695 14.6542 109.695 11.3617V9.7724L107.806 9.44932V7.86737L112.376 7.22225C112.554 7.77745 112.703 8.24378 112.876 8.78434C113.075 8.63378 113.227 8.5334 113.363 8.41315C114.688 7.23793 116.248 6.82911 117.973 7.05391C120.044 7.32053 121.397 8.83138 121.484 11.0271C121.55 12.6801 121.511 14.3374 121.514 15.9925C121.514 17.7522 121.529 19.513 121.508 21.2716C121.501 21.8028 121.684 22.0903 122.222 22.1593C122.537 22.1959 122.853 22.29 123.254 22.3799Z" fill="#4A5C5F"/>
<path d="M18.3402 9.76091L16.5951 9.44724V7.86528L21.1131 7.21703L21.5961 8.80839C21.8408 8.61705 22.0144 8.48845 22.1837 8.34625C23.9403 6.84481 26.5459 6.53218 28.3725 7.64362C29.7056 8.45499 30.2211 9.73477 30.2294 11.231C30.2483 14.5245 30.2294 17.8181 30.2378 21.1106C30.2378 21.3835 30.2723 21.6564 30.2932 21.9722L31.9389 22.3904C31.9159 22.8766 31.894 23.3314 31.8689 23.8542H26.5386C26.5145 23.5792 26.4748 23.3314 26.4748 23.0773C26.4748 19.6092 26.4884 16.1421 26.456 12.6749C26.4497 12.0476 26.365 11.3638 26.1036 10.8054C25.4637 9.43992 23.269 9.33536 22.4253 10.5963C22.28 10.8316 22.2036 11.1029 22.2046 11.3795C22.189 14.7075 22.1931 18.0356 22.1963 21.3637C22.2086 21.5651 22.2316 21.7658 22.2653 21.9649L23.9246 22.4124C23.8744 22.8881 23.8274 23.3419 23.7741 23.8615H16.8074V22.3977L18.3402 21.9732V9.76091Z" fill="#4A5C5F"/>
<path d="M139.084 9.27781L137.259 9.05197V7.69273L142.602 7.0361C142.724 7.699 142.925 8.3002 142.931 8.9035C142.962 12.195 142.939 15.4906 142.953 18.78C142.95 19.2491 143.006 19.7167 143.12 20.1717C143.361 21.075 143.947 21.6616 144.905 21.7703C145.899 21.8822 146.847 21.7954 147.391 20.7823C147.534 20.5258 147.614 20.2392 147.625 19.9458C147.641 16.6188 147.639 13.2918 147.636 9.96476C147.636 9.33741 147.511 9.22658 146.862 9.17848C146.473 9.14921 146.084 9.10738 145.649 9.06765V7.68331L151.046 7.03924C151.169 7.73873 151.373 8.37549 151.377 9.01329C151.406 13.0544 151.391 17.0966 151.395 21.142C151.395 21.4128 151.437 21.6836 151.462 21.9878L153.091 22.4238C153.013 22.9163 152.943 23.3648 152.864 23.8699H148.414C148.245 23.4757 148.079 23.0878 147.881 22.6246C147.61 22.8034 147.402 22.9173 147.219 23.0637C145.441 24.4815 143.488 24.4993 141.502 23.7005C140.241 23.1934 139.507 22.1384 139.306 20.7865C139.186 19.9596 139.126 19.1251 139.126 18.2896C139.117 15.5711 139.147 12.8526 139.156 10.1341C139.157 9.88216 139.115 9.62599 139.084 9.27781Z" fill="#4A5C5F"/>
<path d="M98.7261 16.6377C98.4794 17.3372 98.678 17.9844 98.8118 18.6191C99.2384 20.6433 100.704 21.991 102.56 21.9011C103.551 21.853 104.529 21.5111 105.513 21.2989C105.628 21.2748 105.74 21.2299 105.949 21.165C106.146 21.6052 106.339 22.035 106.587 22.587C105.941 22.9331 105.37 23.2865 104.761 23.5552C103.283 24.2077 101.71 24.3164 100.145 24.078C98.1071 23.7717 96.6496 22.564 95.7211 20.7583C94.3326 18.0576 94.2448 15.2084 94.9485 12.3111C95.3667 10.611 96.1488 9.10852 97.6136 8.06712C100.193 6.23319 105.091 6.30428 106.57 10.864C107.007 12.2118 107.169 13.5825 107.268 14.9669C107.29 15.267 107.174 15.5785 107.113 15.8838C107.035 16.2697 106.789 16.4192 106.401 16.4244C105.269 16.4411 104.138 16.4819 103.007 16.506C101.735 16.5331 100.465 16.552 99.1935 16.5792C99.0576 16.5833 98.9216 16.6168 98.7261 16.6377ZM103.64 14.5466C103.97 13.2835 103.264 10.6675 102.558 9.79442C101.751 8.79485 99.6034 8.90881 99.2719 10.497C99.0377 11.62 98.7617 12.7325 98.54 13.8575C98.4877 14.1252 98.5724 14.42 98.6027 14.8226L103.64 14.5466Z" fill="#4A5C5F"/>
<path d="M136.462 16.4075L128.209 16.6072C128.157 16.8101 128.077 16.9586 128.087 17.1018C128.172 18.4443 128.455 19.7251 129.377 20.7707C130.177 21.6772 131.227 22.0327 132.388 21.8937C133.278 21.7891 134.148 21.5005 135.025 21.2925C135.14 21.2653 135.252 21.2245 135.458 21.1628L136.056 22.6183C135.409 22.9591 134.827 23.3345 134.194 23.5865C132.552 24.2573 130.737 24.3823 129.018 23.943C127.129 23.4673 125.814 22.2105 125.063 20.4863C123.557 17.0286 123.578 13.528 125.311 10.1477C126.34 8.14018 128.075 7.10296 130.368 6.99422C132.25 6.90431 133.845 7.40618 135.026 8.93586C135.685 9.79779 136.137 10.7994 136.347 11.8635C136.553 12.9039 136.688 13.9571 136.751 15.0159C136.78 15.4498 136.574 15.9025 136.462 16.4075ZM128.013 14.6175C128.559 14.88 132.535 14.7033 133.204 14.4157C133.242 14.311 133.262 14.2008 133.265 14.0895C133.167 13.3147 133.119 12.5211 132.927 11.7725C132.758 11.1362 132.5 10.5272 132.159 9.96366C131.741 9.26731 131.043 9.07283 130.253 9.17843C129.559 9.27149 129.029 9.57471 128.853 10.3035C128.567 11.4986 128.283 12.6947 128.017 13.895C127.968 14.1334 128.013 14.3979 128.013 14.6133V14.6175Z" fill="#4A5C5F"/>
<path d="M66.2433 16.4077L57.9958 16.6106C57.9445 16.8291 57.8609 16.9964 57.8766 17.1522C57.9811 18.2145 58.1673 19.258 58.7444 20.1843C59.5537 21.4871 60.7498 22.058 62.2429 21.8813C63.2362 21.7642 64.2096 21.4882 65.2918 21.2623C65.4528 21.6178 65.6494 22.0486 65.8721 22.539C65.4685 22.7983 65.1402 23.0618 64.7721 23.2364C62.4646 24.3415 60.089 24.6427 57.7239 23.5019C55.729 22.54 54.744 20.7437 54.2139 18.6787C53.682 16.6085 53.6888 14.4365 54.2338 12.3697C54.8611 9.90843 56.1158 7.88001 58.7455 7.22444C62.0557 6.39739 64.6101 7.49316 65.8679 10.8756C66.3802 12.2537 66.5329 13.6871 66.5705 15.1342C66.5841 15.5368 66.3666 15.9487 66.2433 16.4077ZM57.8379 14.8268L62.9936 14.5529C63.026 14.2392 63.0909 14.0301 63.0605 13.8346C62.9309 13.0107 62.8148 12.1815 62.6109 11.3754C62.4796 10.8886 62.2721 10.4256 61.9961 10.0036C61.5507 9.30409 60.8606 9.06256 60.0461 9.18384C59.332 9.2884 58.803 9.63344 58.6252 10.3748C58.3555 11.505 58.0878 12.6363 57.8473 13.7739C57.7877 14.0468 57.8379 14.3479 57.8379 14.8216V14.8268Z" fill="#4A5C5F"/>
<path d="M87.6712 7.22426C87.8249 7.73868 87.9462 8.14646 88.0895 8.63056C88.2848 8.57022 88.4747 8.49363 88.6572 8.40158C89.8879 7.63935 91.2377 7.28281 92.668 7.20126C93.5599 7.15107 93.9395 7.61949 93.8182 8.48731C93.6791 9.45133 93.5976 10.4237 93.4836 11.3919C93.4564 11.6282 93.3989 11.8603 93.3581 12.083H90.9251C90.8393 11.6429 90.7546 11.2759 90.7013 10.9026C90.648 10.5293 90.625 10.1602 90.5968 9.82774C89.5125 9.52034 88.6645 10.1268 88.6645 11.1117C88.6645 14.4575 88.6645 17.8034 88.6645 21.1492C88.6645 21.4221 88.7011 21.695 88.7252 22.0171L90.3364 22.4551C90.2988 22.9319 90.2632 23.3794 90.2235 23.875H83.2181V22.4635L84.6725 22.0014V9.75873L82.9996 9.45238V7.86938L87.6712 7.22426Z" fill="#4A5C5F"/>
<path d="M48.0429 22.0181L49.6385 22.4562C49.5945 22.9247 49.5548 23.3607 49.5078 23.8594H42.5254V22.4719L43.9997 21.9805V9.77552L42.3163 9.43884V7.87048L46.9492 7.23373L47.4501 8.63479C47.9729 8.37549 48.4622 8.12456 48.9578 7.8893C49.9344 7.42716 50.981 7.26196 52.0475 7.20027C52.565 7.16995 52.7616 7.29228 53.1662 7.83493C53.0031 9.23077 52.8348 10.6726 52.6685 12.0873H50.1811C50.064 11.2581 49.9595 10.5043 49.8549 9.75983C49.1627 9.67096 48.6556 9.83303 48.2186 10.1687C48.1456 10.2382 48.0871 10.3215 48.0464 10.4137C48.0056 10.5059 47.9835 10.6053 47.9812 10.7061C47.968 14.3307 47.9659 17.9554 47.9749 21.5801C47.9874 21.7275 48.0101 21.8739 48.0429 22.0181Z" fill="#4A5C5F"/>
<path d="M33.9266 9.73575L32.0352 9.33529C32.0634 8.73095 32.0916 8.15484 32.123 7.49822C32.6646 7.44803 33.1403 7.38007 33.6171 7.36648C34.119 7.35184 34.349 7.12077 34.462 6.63458C34.6575 5.80962 34.9293 5.00243 35.1939 4.1252L37.7628 4.00809V7.41562H40.7887C40.7061 8.1287 40.6413 8.69645 40.5681 9.32902L37.9144 9.69916C37.8831 9.99819 37.8392 10.2167 37.8392 10.4311C37.835 13.6723 37.835 16.9136 37.8392 20.1549C37.8392 21.5006 38.3212 21.9669 39.671 21.9732H40.8441C40.91 22.5681 40.9665 23.07 41.0292 23.6293C40.6444 23.7538 40.3423 23.9179 40.0296 23.943C38.9046 24.0214 37.7639 24.1856 36.6545 24.0695C34.9753 23.8939 33.936 22.4729 33.936 20.5846C33.9256 17.2566 33.936 13.9285 33.936 10.6004L33.9266 9.73575Z" fill="#4A5C5F"/>
<path d="M158.816 7.22232C158.972 7.72943 159.097 8.13615 159.247 8.62548C159.456 8.54706 159.652 8.50629 159.812 8.40487C161.037 7.6301 162.391 7.28506 163.82 7.20141C164.677 7.15122 165.057 7.55377 164.964 8.39545C164.844 9.48599 164.711 10.5755 164.578 11.665C164.553 11.8065 164.518 11.9462 164.474 12.0832H162.045C161.913 11.2687 161.794 10.5263 161.679 9.81325C160.612 9.53304 159.786 10.1269 159.785 11.1234C159.785 14.4692 159.785 17.815 159.785 21.1609C159.785 21.4317 159.828 21.7025 159.856 22.012L161.377 22.4302V23.8553H154.236C154.318 23.3608 154.253 22.7951 154.505 22.5034C154.757 22.2117 155.342 22.1531 155.837 21.9712V9.7662L154.171 9.44312V7.8643L158.816 7.22232Z" fill="#4A5C5F"/>
</svg>
