<svg width="118" height="31" viewBox="0 0 118 31" fill="none" xmlns="http://www.w3.org/2000/svg">
<path d="M67.1286 9.91162C67.4449 9.7741 67.6942 9.6612 67.9473 9.55739C69.779 8.80289 71.6829 8.58724 73.605 9.03031C75.8406 9.54561 77.4524 10.9492 78.5814 12.9141C79.4188 14.3529 79.9031 15.9698 79.9946 17.6321C80.076 19.0683 80.1017 20.4976 79.8245 21.9172C79.49 23.6413 78.9271 25.2734 77.8767 26.7069C76.3142 28.8404 74.2027 30.1316 71.6411 30.6838C70.8289 30.8582 69.9823 30.9283 69.1518 30.9513C68.0561 30.9919 66.9589 30.9724 65.8652 30.893C64.8651 30.8144 63.8736 30.6164 62.881 30.4526C62.2747 30.3531 61.6748 30.2145 61.0707 30.1032C60.8567 30.0636 60.7834 29.9641 60.786 29.7404C60.8187 27.2891 60.8519 24.8373 60.8636 22.3854C60.8829 18.4256 60.8923 14.4668 60.892 10.5088C60.892 9.09238 60.8358 7.67275 60.7892 6.25901C60.7636 5.48953 60.6523 4.73504 60.3012 4.03138C60.0717 3.57119 59.7335 3.26297 59.231 3.14203C58.91 3.06444 58.5889 2.99167 58.2721 2.9007C57.9693 2.81348 57.8976 2.64439 57.9163 2.19223C57.9275 1.93324 58.0313 1.79892 58.3053 1.74702C60.5806 1.31894 62.8537 0.871591 65.1268 0.434411C65.6619 0.331672 66.197 0.239634 66.7321 0.143315C67.1217 0.0732169 67.1891 0.133148 67.1869 0.535546C67.1677 3.5043 67.1488 6.47305 67.1302 9.4418C67.1281 9.57504 67.1286 9.70722 67.1286 9.91162ZM67.0912 17.7043H67.1243C67.1243 19.1395 67.1099 20.5746 67.1275 22.0092C67.1538 24.1213 67.2025 26.2333 67.2421 28.3454C67.2565 29.1036 67.2576 29.0983 68.0126 29.1876C69.2471 29.3337 70.2499 28.9014 71.0563 27.9783C71.6925 27.2495 72.1265 26.4008 72.4556 25.5002C72.9997 24.0457 73.3145 22.5154 73.3888 20.9642C73.4584 19.3781 73.4958 17.7921 73.1555 16.2269C72.8879 15.0074 72.5096 13.8313 71.7273 12.8306C71.1751 12.1232 70.4928 11.5742 69.5869 11.4206C68.8121 11.289 68.0399 11.4078 67.2977 11.6668C67.2228 11.693 67.1463 11.8364 67.1431 11.9284C67.1158 12.6856 67.0965 13.4428 67.0896 14.2005C67.0858 15.3697 67.0912 16.5351 67.0912 17.7033V17.7043Z" fill="#4A5C5F"/>
<path d="M8.12547 30.4692C6.11027 30.4692 4.09472 30.4692 2.0788 30.4692C1.53514 30.4692 0.991474 30.4382 0.44781 30.4377C0.228952 30.4377 0.133704 30.3365 0.126748 30.1386C0.116581 29.8983 0.114975 29.657 0.121397 29.4167C0.127818 29.1764 0.284603 29.0678 0.490618 29.0197C0.8379 28.9389 1.18625 28.8463 1.53621 28.8003C2.84614 28.6301 3.5696 27.829 3.84464 26.6063C4.01065 25.8398 4.12223 25.0625 4.17855 24.2802C4.4065 21.3709 4.35299 18.4546 4.36155 15.5399C4.36744 13.5338 4.37868 11.5266 4.33159 9.52209C4.29627 8.01043 4.27808 6.49127 3.96825 4.99994C3.89697 4.67825 3.80437 4.36166 3.69107 4.05227C3.33523 3.04467 2.59946 2.50047 1.56029 2.33994C1.18197 2.28001 0.803118 2.21686 0.422125 2.18422C0.201662 2.16549 0.127283 2.06864 0.127818 1.86316C0.127818 1.5512 0.127818 1.23869 0.1123 0.927265C0.104808 0.756567 0.184539 0.680582 0.339719 0.659713C0.410692 0.65047 0.482188 0.645823 0.55376 0.645801C4.65533 0.633493 8.75689 0.613694 12.8611 0.613159C16.4634 0.613159 20.0658 0.634028 23.6702 0.646336C24.102 0.646336 24.1074 0.646336 24.1283 1.0696C24.162 1.77273 24.2032 2.47585 24.2144 3.17898C24.2465 5.07806 24.2594 6.97821 24.2931 8.87569C24.2979 9.1304 24.2144 9.25026 23.972 9.29788C23.7109 9.35139 23.4589 9.44878 23.1988 9.50872C22.8242 9.5954 22.7579 9.56223 22.5989 9.20959C22.4459 8.8682 22.3159 8.51663 22.1746 8.16989C21.6513 6.88243 21.045 5.64366 20.0395 4.65105C19.0175 3.64238 17.7921 3.09925 16.3473 3.08159C14.7955 3.0634 13.2437 3.05377 11.6919 3.02808C11.4383 3.0238 11.3313 3.07624 11.3227 3.35824C11.2869 4.56918 11.2007 5.77905 11.1804 6.98998C11.1386 9.41454 11.1269 11.8396 11.1055 14.2674C11.1017 14.6687 11.1055 14.681 11.4993 14.6655C12.4871 14.6259 13.4754 14.5938 14.4611 14.5232C15.4714 14.4504 16.1831 13.8736 16.6047 13.0008C16.9258 12.3416 17.1184 11.6202 17.3464 10.9192C17.4662 10.5511 17.4668 10.5238 17.8515 10.5142C18.1191 10.5072 18.3866 10.5094 18.6542 10.5045C18.8099 10.5013 18.8864 10.572 18.8794 10.7298C18.8768 10.7833 18.8794 10.8368 18.8794 10.8904C18.8794 14.0385 18.8794 17.1864 18.8794 20.3339C18.8794 20.747 18.8794 20.7512 18.4663 20.74C18.2084 20.733 17.9505 20.6977 17.6926 20.7031C17.4871 20.7068 17.425 20.6073 17.3715 20.4302C17.1639 19.7597 16.9547 19.0887 16.7107 18.431C16.6165 18.1774 16.4431 17.9494 16.2794 17.7263C15.8577 17.1537 15.3017 16.7877 14.5777 16.7417C13.5113 16.6732 12.4438 16.6245 11.3768 16.5635C11.1836 16.5523 11.1001 16.624 11.1044 16.823C11.1435 18.7746 11.1606 20.7266 11.2232 22.6776C11.2548 23.6461 11.3334 24.6168 11.457 25.5784C11.5282 26.1376 11.6914 26.6941 11.8819 27.2276C12.1874 28.0805 12.7916 28.6103 13.7178 28.7441C14.2289 28.8179 14.7345 28.9287 15.2434 29.0116C15.4901 29.0528 15.6271 29.1807 15.6458 29.4317C15.6533 29.5291 15.6683 29.6265 15.6699 29.7238C15.6811 30.3831 15.6474 30.4302 15.0064 30.4318C12.715 30.4371 10.4237 30.4318 8.13243 30.4318L8.12547 30.4692Z" fill="#4A5C5F"/>
<path d="M31.3136 30.9947C29.9705 31.0321 28.6595 30.8727 27.3961 30.4007C24.7078 29.3958 22.9013 27.5112 21.9054 24.8394C21.3933 23.4674 21.1467 22.044 21.0824 20.581C21.0011 18.7355 21.1638 16.9177 21.8369 15.1936C23.2609 11.549 25.8807 9.31604 29.7805 8.67285C31.8059 8.33894 33.8008 8.48396 35.7341 9.18548C38.3336 10.1294 40.0652 11.968 41.0653 14.5146C41.6077 15.8946 41.9067 17.3582 41.9493 18.8403C42.0028 20.6774 41.9071 22.4919 41.2537 24.2369C39.8426 27.9944 37.1628 30.2236 33.2068 30.8877C32.5877 30.9947 31.9456 30.9631 31.3136 30.9947ZM35.3676 20.0743C35.3215 19.1154 35.2825 18.1522 35.2215 17.1928C35.1557 16.0264 34.9517 14.8719 34.6136 13.7537C34.285 12.6941 33.7944 11.731 32.9949 10.9283C32.0392 9.97047 30.3542 10.0127 29.5135 11.0401C29.2167 11.3968 28.968 11.791 28.774 12.2126C28.0597 13.8082 27.8205 15.5157 27.7734 17.2425C27.7279 18.9067 27.7584 20.5746 27.8114 22.2393C27.859 23.7376 28.1918 25.1877 28.721 26.5897C29.0255 27.3977 29.4365 28.1447 30.0995 28.7253C30.4972 29.0768 31.0018 29.284 31.5318 29.3135C32.0618 29.343 32.5863 29.1931 33.0206 28.888C33.5273 28.5327 33.9447 28.0789 34.1796 27.5128C34.4616 26.8332 34.7254 26.1343 34.8892 25.4189C35.2878 23.6638 35.3322 21.8701 35.3676 20.0748V20.0743Z" fill="#4A5C5F"/>
<path d="M96.8327 18.972C94.0145 18.972 91.1963 18.9706 88.3781 18.9677C88.1373 18.9677 88.0506 19.0341 88.057 19.2861C88.117 21.1622 88.3781 23.0056 89.4205 24.6061C90.526 26.3018 92.0564 27.409 94.1567 27.5759C95.4334 27.6771 96.6931 27.6471 97.8837 27.1232C98.4113 26.891 98.9063 26.5812 99.4066 26.2906C99.6206 26.1654 99.7742 26.1873 99.9417 26.3666C100.36 26.8081 100.386 27.0312 99.9909 27.4946C98.6922 29.0154 97.0682 30.0246 95.153 30.5939C93.697 31.0268 92.2148 31.0423 90.7283 30.915C88.453 30.7223 86.4844 29.8068 84.8346 28.2336C83.5504 27.0082 82.6942 25.511 82.1468 23.8275C81.8258 22.8445 81.6904 21.8396 81.6417 20.8085C81.5882 19.6099 81.5882 18.4176 81.8242 17.242C82.3058 14.8506 83.3043 12.7252 85.145 11.0632C86.5898 9.76181 88.2866 8.98966 90.1985 8.67502C91.7953 8.41228 93.3786 8.44974 94.9315 8.93508C96.8386 9.53065 98.2379 10.7544 99.2032 12.485C99.9802 13.8762 100.353 15.3964 100.517 16.9686C100.576 17.524 100.563 18.0864 100.589 18.6456C100.599 18.8746 100.482 18.9271 100.276 18.926C99.1262 18.9196 97.9752 18.9228 96.8258 18.9228L96.8327 18.972ZM89.0705 17.082C90.6635 17.0424 92.1688 17.005 93.6724 16.9664C93.7436 16.9664 93.8142 16.9477 93.8865 16.9466C94.0759 16.9429 94.154 16.8573 94.1406 16.662C94.1139 16.3249 94.1016 15.9867 94.0871 15.6485C94.0336 14.6414 93.9159 13.644 93.6499 12.669C93.4568 11.96 93.2101 11.2735 92.6819 10.7298C92.2506 10.2857 91.7289 10.1556 91.1392 10.3108C90.3574 10.5163 89.8812 11.0899 89.4858 11.7422C88.9624 12.6053 88.6473 13.5541 88.4519 14.536C88.3027 15.2851 88.224 16.0471 88.1159 16.8038C88.0865 17.0082 88.1694 17.097 88.3835 17.0852C88.6414 17.0686 88.9004 17.082 89.0705 17.082Z" fill="#4A5C5F"/>
<path d="M108.709 30.9529C106.628 31.0562 104.66 30.6046 102.707 30.055C102.511 30.0015 102.325 29.9063 102.13 29.8442C101.921 29.7784 101.845 29.6526 101.841 29.43C101.809 27.5144 101.773 25.5982 101.721 23.6825C101.714 23.4048 101.815 23.2608 102.067 23.2084C102.293 23.1613 102.522 23.1014 102.75 23.1057C102.839 23.1057 102.959 23.2421 103.009 23.3443C103.437 24.2149 103.808 25.1166 104.282 25.961C104.853 26.9777 105.61 27.8622 106.712 28.3299C107.975 28.865 109.273 28.9907 110.515 28.2624C111.586 27.6348 111.971 26.6405 111.925 25.4312C111.889 24.4948 111.409 23.8462 110.674 23.3395C109.786 22.7273 108.789 22.3389 107.802 21.9236C106.94 21.5603 106.058 21.228 105.24 20.7833C103.511 19.8415 102.422 18.4155 102.168 16.4147C101.781 13.3646 103.246 10.9802 105.672 9.61303C106.857 8.94468 108.159 8.65359 109.508 8.56369C111.683 8.42127 113.865 8.69477 115.937 9.36955C116.67 9.60446 116.674 9.6157 116.696 10.3638C116.742 11.958 116.781 13.5526 116.812 15.1476C116.812 15.2321 116.748 15.3649 116.679 15.3964C116.458 15.492 116.23 15.5698 115.997 15.6292C115.77 15.6918 115.643 15.5473 115.564 15.3616C115.354 14.8704 115.163 14.3701 114.944 13.8826C114.511 12.9162 114.002 11.9942 113.159 11.3141C112.228 10.565 111.165 10.2065 109.968 10.4151C108.839 10.6121 107.935 11.663 107.869 12.814C107.847 13.1945 107.836 13.5867 107.902 13.9586C108.032 14.6906 108.553 15.1711 109.112 15.5982C109.94 16.2312 110.883 16.6603 111.832 17.0745C113.098 17.6267 114.384 18.1367 115.527 18.934C116.629 19.7019 117.4 20.7041 117.726 22.0205C117.954 22.9339 117.95 23.873 117.827 24.7864C117.44 27.676 115.703 29.4568 113.027 30.4194C112.027 30.7788 110.971 30.9583 109.909 30.9497C109.499 30.9508 109.088 30.9529 108.709 30.9529Z" fill="#4A5C5F"/>
<path d="M51.0429 12.9045C51.2034 12.63 51.3179 12.4229 51.4367 12.2206C52.1506 10.9899 53.0479 9.93733 54.3011 9.22029C55.7106 8.41389 57.1907 8.27637 58.7387 8.72746C58.8156 8.75015 58.8912 8.77713 58.9651 8.80826C59.4927 9.02498 59.5682 9.17053 59.3702 9.70081C58.7537 11.3536 58.1314 13.0045 57.5032 14.6537C57.3346 15.0963 57.3282 15.0818 56.8868 14.9154C56.1708 14.6478 55.4655 14.3268 54.7265 14.1529C53.643 13.8987 52.5861 14.0913 51.5946 14.6141C51.2056 14.8196 51.0349 15.1278 51.0327 15.5639C51.022 17.8729 50.9669 20.1819 50.9979 22.4903C51.0177 23.9576 51.1376 25.4254 51.2655 26.8883C51.3019 27.3095 51.4747 27.7333 51.654 28.1244C51.8471 28.5461 52.2356 28.7703 52.6926 28.8393C53.2555 28.9239 53.8204 28.9963 54.3873 29.0566C54.5633 29.0748 54.6602 29.1395 54.6591 29.3102C54.6591 29.6216 54.6532 29.9341 54.6227 30.2434C54.6158 30.3119 54.5002 30.374 54.4269 30.4291C54.4044 30.4468 54.3579 30.4334 54.3199 30.4334C50.9309 30.4452 47.5431 30.4564 44.1566 30.4671C43.5065 30.4671 42.8558 30.4361 42.2057 30.4334C41.9515 30.4334 41.8477 30.3264 41.853 30.0802C41.8578 29.8485 41.8627 29.6163 41.8568 29.3846C41.8514 29.1914 41.9279 29.0903 42.1243 29.0598C42.379 29.0207 42.6311 28.9597 42.8842 28.9094C43.8752 28.7141 44.4552 28.118 44.5724 27.1056C44.666 26.3635 44.7217 25.6171 44.7394 24.8694C44.7742 22.0868 44.8014 19.3043 44.787 16.5255C44.7816 15.4864 44.665 14.4472 44.5762 13.4102C44.5542 13.1576 44.4627 12.905 44.3675 12.6669C44.1673 12.165 43.8115 11.823 43.2673 11.7091C42.9013 11.632 42.5353 11.5528 42.1671 11.4881C41.9456 11.449 41.8316 11.3404 41.8461 11.1103C41.8466 11.1015 41.8466 11.0928 41.8461 11.0841C41.8033 10.4318 41.8295 10.3783 42.4545 10.253C45.2399 9.69439 48.0262 9.14038 50.8133 8.59101C51.1435 8.52573 51.2018 8.57282 51.1879 8.90298C51.1424 10.1583 51.09 11.4131 51.0407 12.6685C51.0413 12.7188 51.0429 12.7696 51.0429 12.9045Z" fill="#4A5C5F"/>
</svg>
