<svg width="103" height="24" viewBox="0 0 103 24" fill="none" xmlns="http://www.w3.org/2000/svg">
<path d="M87.9615 12.1166V23.008C87.9615 23.1939 87.9615 23.4036 87.9615 23.5737C87.9615 23.7438 87.914 23.6963 87.8032 23.637C87.6779 23.5862 87.5426 23.5646 87.4076 23.5737H84.2031C84.1082 23.5737 83.9737 23.5341 83.9262 23.5737C83.6928 23.7992 83.6097 23.6014 83.5543 23.4431C83.3961 22.9842 83.2695 22.5174 83.1231 22.0545C82.8541 21.2158 82.5336 20.3929 82.3318 19.5423C82.0589 18.4742 81.6514 17.4495 81.3349 16.3972C81.2162 16.0016 81.1252 15.5783 80.9867 15.1866C80.914 14.7988 80.7805 14.425 80.5911 14.0789C80.6505 13.5448 80.1955 13.1056 80.2984 12.5597C80.2984 12.5359 80.2034 12.4608 80.152 12.4647C80.1233 12.4723 80.0968 12.4867 80.0747 12.5067C80.0527 12.5267 80.0358 12.5516 80.0254 12.5795C80.0254 12.7694 80.0254 12.9751 80.0254 13.1492V23.0396C80.0254 23.2256 80.0254 23.4352 80.0254 23.6053C80.0254 23.6053 79.9423 23.6449 79.8988 23.641C79.7462 23.6063 79.5916 23.5812 79.4359 23.5658C78.6051 23.5658 77.7743 23.5658 76.9435 23.5658C76.7694 23.5658 76.5796 23.4985 76.4173 23.6726C76.3422 23.7557 76.1918 23.7319 76.1879 23.5539C76.1839 23.3759 76.1879 23.2691 76.1879 23.1266V1.21335C76.1958 1.09612 76.1958 0.978486 76.1879 0.861252C76.1602 0.647618 76.2789 0.63575 76.4411 0.63575C77.3431 0.63575 78.2451 0.63575 79.1432 0.63575C79.3066 0.605814 79.4742 0.605814 79.6377 0.63575C79.8157 0.706961 79.9027 0.394423 80.0333 0.568495C80.0987 0.683009 80.1454 0.807206 80.1718 0.93642C80.5476 2.04019 80.963 3.12419 81.2795 4.24774C81.4852 5.01524 81.7859 5.75505 81.9837 6.51859C82.2171 7.44038 82.589 8.3147 82.8343 9.22462C83.0796 10.1345 83.3842 11.0366 83.7046 11.9267C83.779 12.208 83.8371 12.4933 83.8787 12.7812C83.8969 12.8063 83.9207 12.8268 83.9481 12.8412C83.9756 12.8557 84.006 12.8635 84.037 12.8643C84.066 12.856 84.0921 12.8397 84.1123 12.8173C84.1326 12.795 84.1462 12.7674 84.1517 12.7377C84.1517 12.5478 84.1517 12.3421 84.1517 12.168V1.22522C84.1517 1.03532 84.1517 0.829603 84.1517 0.655531C84.1517 0.481459 84.2585 0.6041 84.3416 0.608056C85.4968 0.608056 86.652 0.608056 87.8072 0.608056C87.9022 0.608056 87.9892 0.445853 87.9971 0.667399C88.005 0.888945 87.9971 1.06302 87.9971 1.23709L87.9615 12.1166Z" fill="#4A5C5F"/>
<path d="M29.7106 12.1047V1.21731C29.7106 1.02742 29.7106 0.821694 29.7106 0.647622C29.7106 0.540805 29.7106 0.501243 29.861 0.560586C30.0325 0.619717 30.2139 0.645238 30.3951 0.635753C31.938 0.635753 33.4809 0.635753 35.0238 0.635753C35.2919 0.608512 35.5619 0.603219 35.8309 0.619929C36.7518 0.775697 37.6263 1.13523 38.3905 1.67227C39.0987 2.13515 39.4666 2.83143 39.973 3.4486C40.1534 3.94688 40.2988 4.45715 40.4082 4.97569C40.6534 5.94495 40.511 6.93004 40.5427 7.90722C40.5743 8.50022 40.5743 9.09449 40.5427 9.6875C40.5187 10.4949 40.3775 11.2945 40.1233 12.0612C39.9241 12.6496 39.6301 13.2015 39.253 13.6951C39.0354 13.9562 38.885 14.2529 38.5488 14.3914C38.5082 14.425 38.477 14.4685 38.4583 14.5178C38.4396 14.567 38.4339 14.6202 38.4419 14.6723C38.7505 15.2499 38.7782 15.9066 38.976 16.5159C39.2925 17.501 39.5457 18.494 39.8385 19.5028C40.0996 20.389 40.3805 21.2712 40.6297 22.1574C40.7563 22.5847 40.8671 23.0119 40.962 23.4471C41.0055 23.6568 40.962 23.7755 40.7365 23.5618C40.7128 23.5381 40.6455 23.5618 40.5981 23.5618C39.5536 23.5618 38.5092 23.5618 37.4687 23.5618C37.0731 23.5618 37.0731 23.5856 36.9742 23.2691C36.7289 22.557 36.6063 21.8092 36.4006 21.0892C36.2304 20.4918 36.0564 19.9024 35.9219 19.2931C35.728 18.4623 35.4352 17.6513 35.2572 16.8007C35.1574 16.2338 35.0132 15.6756 34.826 15.1312C34.644 14.6525 34.5886 14.1461 34.4304 13.6635C34.3411 13.3617 34.2685 13.0553 34.2128 12.7456C34.4897 12.6111 34.7666 12.4845 35.0396 12.35C35.4567 12.1871 35.8103 11.8944 36.0485 11.5153C36.2956 11.1463 36.4788 10.7384 36.5904 10.3086C36.6492 10.0685 36.6862 9.82351 36.7012 9.57673C36.7012 8.4413 36.7012 7.30192 36.7012 6.16254C36.7008 5.87688 36.6328 5.59537 36.5029 5.34098C36.373 5.08659 36.1847 4.86653 35.9535 4.69875C35.8693 4.62375 35.771 4.56624 35.6644 4.52956C35.5578 4.49289 35.4449 4.47778 35.3324 4.48512C34.7469 4.53259 34.1455 4.53259 33.5758 4.55237C33.5758 5.09437 33.5758 5.63637 33.5758 6.18232V23.0436C33.5758 23.2335 33.5758 23.4392 33.5758 23.6093C33.5758 23.6093 33.4928 23.6568 33.4532 23.6489C33.3006 23.6142 33.146 23.5891 32.9903 23.5737C32.1121 23.5737 31.2338 23.5737 30.3555 23.5737C30.1967 23.565 30.0377 23.5893 29.8887 23.6449C29.7581 23.7082 29.7383 23.6845 29.7383 23.5658C29.7383 23.3759 29.7383 23.1702 29.7383 22.9961L29.7106 12.1047Z" fill="#4A5C5F"/>
<path d="M24.441 12.2155C24.441 14.4191 24.4173 16.6266 24.441 18.8342C24.4241 19.4206 24.3078 19.9998 24.0968 20.5472C23.755 21.4235 23.1921 22.1962 22.4629 22.7904C21.7706 23.3555 20.9429 23.7305 20.0615 23.8783C19.927 24.1078 19.749 23.7043 19.5472 23.9258C19.4325 24.0484 19.1081 23.9772 18.8786 23.997C18.6492 24.0168 18.483 23.8823 18.2931 23.8744C17.8905 23.8271 17.4931 23.7423 17.1063 23.6212C16.6307 23.5077 16.1879 23.2856 15.8126 22.9724C15.1361 22.3987 14.4596 21.7855 14.1352 20.9072C13.9559 20.4301 13.8157 19.9393 13.7158 19.4395C13.4982 18.3397 13.6129 17.2438 13.605 16.1479C13.5813 12.6349 13.5813 9.12308 13.605 5.61263C13.5973 4.73553 13.8095 3.87048 14.2222 3.0965C14.5441 2.46863 14.9908 1.91315 15.5351 1.46414C16.0793 1.01514 16.7096 0.682084 17.3871 0.485416C17.644 0.406501 17.9099 0.361285 18.1784 0.350906C18.3409 0.354716 18.5025 0.325092 18.6531 0.26387C18.7708 0.214035 18.8972 0.188354 19.025 0.188354C19.1528 0.188354 19.2792 0.214035 19.3969 0.26387C19.6047 0.368378 19.8419 0.399072 20.0694 0.350906C20.387 0.341761 20.7015 0.413938 20.9833 0.560583C21.6314 0.809942 22.2362 1.15973 22.7755 1.5971C23.1079 1.9383 23.3999 2.31663 23.6458 2.72462C24.081 3.31804 24.2037 4.01829 24.4371 4.68293C24.4765 4.86614 24.4858 5.05453 24.4648 5.24075L24.441 12.2155ZM20.5956 12.1008C20.5956 10.0159 20.5956 7.927 20.5956 5.84209C20.5954 5.45949 20.4929 5.08389 20.2989 4.75414C20.0853 4.35852 19.207 3.92334 18.847 4.06576C18.3913 4.21567 17.9941 4.50489 17.7116 4.8926C17.5346 5.18126 17.4466 5.5156 17.4584 5.85396C17.4584 10.0238 17.4584 14.1949 17.4584 18.3674C17.4574 18.7107 17.5544 19.0472 17.738 19.3373C17.9216 19.6274 18.1842 19.8592 18.4949 20.0052C18.6293 20.0837 18.7791 20.1323 18.934 20.1476C19.1474 20.155 19.3601 20.1197 19.5596 20.0438C19.7591 19.9678 19.9415 19.8527 20.0959 19.7053C20.2503 19.5579 20.3737 19.3811 20.4589 19.1853C20.544 18.9895 20.5891 18.7787 20.5917 18.5652C20.5996 16.4051 20.5956 14.2569 20.5956 12.1008Z" fill="#4A5C5F"/>
<path d="M71.0132 10.1583C71.0132 13.1017 70.9934 16.0411 71.0132 18.9845C70.9851 19.9021 70.7119 20.7955 70.222 21.5719C69.7252 22.3722 69.0082 23.0123 68.1568 23.4155C67.687 23.6731 67.1679 23.8281 66.6337 23.8704C65.5249 24.1249 64.3624 23.9938 63.3382 23.4985C62.2963 23.0264 61.4415 22.2203 60.9091 21.2079C60.5213 20.4442 60.3194 19.5997 60.3196 18.7432C60.3196 12.8841 60.3196 7.025 60.3196 1.16589C60.3196 0.975995 60.3196 0.770273 60.3196 0.596201C60.3196 0.596201 60.4067 0.55664 60.4462 0.560596C60.6001 0.595582 60.756 0.620689 60.9131 0.635763C61.7386 0.635763 62.5681 0.635763 63.4015 0.635763C63.5645 0.65234 63.7292 0.633445 63.8842 0.580377C64.0226 0.509165 64.0305 0.552683 64.0345 0.663457V1.21732C64.0345 6.75598 64.0345 12.2828 64.0345 17.7977C64.0568 18.2079 64.1137 18.6155 64.2046 19.0162C64.2956 19.6254 65.2926 20.298 65.8702 20.1397C66.1699 20.0812 66.4486 19.9441 66.678 19.7425C66.9074 19.541 67.0791 19.2821 67.1757 18.9925C67.273 18.6892 67.325 18.3733 67.33 18.0548C67.33 12.4582 67.33 6.86016 67.33 1.26084V0.69115C67.33 0.374655 67.4368 0.592245 67.5476 0.627851C67.6877 0.65176 67.8308 0.65176 67.9709 0.627851C68.7621 0.627851 69.585 0.627851 70.3921 0.627851C70.5523 0.635596 70.7127 0.616883 70.8668 0.572464C70.9578 0.540815 71.0211 0.453779 71.029 0.615982C71.0369 0.778186 71.029 1.0116 71.029 1.18567L71.0132 10.1583Z" fill="#4A5C5F"/>
<path d="M96.9341 16.8007V19.3643C96.9341 19.7125 96.9341 19.7204 97.2585 19.7204H100.178C100.914 19.7204 101.65 19.7204 102.386 19.7204C102.552 19.7204 102.639 19.7441 102.635 19.9459C102.635 21.1327 102.635 22.3196 102.635 23.5065C102.635 23.7676 102.572 23.6845 102.421 23.5895C102.271 23.4946 102.144 23.5895 102.002 23.5895H93.8127C93.6584 23.5895 93.5041 23.6726 93.3538 23.6647C93.2746 23.6647 93.2034 23.5421 93.1243 23.4748C93.334 23.3086 93.2232 23.0792 93.2232 22.8774C93.2232 15.7141 93.2232 8.54813 93.2232 1.37953C93.2232 1.18172 93.3063 0.960171 93.1441 0.770274C93.2018 0.691851 93.2653 0.617801 93.334 0.548728C93.4566 0.718844 93.6347 0.651589 93.7889 0.651589H102.049C102.227 0.651589 102.445 0.710932 102.556 0.513123C102.59 0.714743 102.612 0.918166 102.623 1.12237C102.623 2.14307 102.623 3.16376 102.623 4.18446C102.623 4.42183 102.591 4.50887 102.318 4.50491C100.756 4.50491 99.1891 4.50491 97.6225 4.50491C97.4563 4.50491 97.2902 4.50491 97.124 4.50491C96.9578 4.50491 96.9183 4.55239 96.9183 4.70668C96.9183 6.36432 96.9183 8.02591 96.9183 9.68751C96.9183 9.87741 96.9737 9.92488 97.1557 9.92488C98.2238 9.92488 99.292 9.92488 100.36 9.92488C100.586 9.92488 100.629 9.99609 100.629 10.2058C100.629 11.2977 100.629 12.3896 100.629 13.4815C100.629 13.7624 100.534 13.7822 100.305 13.7782C99.2841 13.7782 98.2634 13.7782 97.2427 13.7782C96.9222 13.7782 96.9183 13.7782 96.9183 14.1343L96.9341 16.8007Z" fill="#4A5C5F"/>
<path d="M0.22522 12.0533V1.1659C0.22522 0.976002 0.22522 0.77028 0.22522 0.600164C0.22522 0.580383 0.316212 0.55269 0.35973 0.580383C0.536261 0.61512 0.714553 0.640213 0.893815 0.655551H9.07916C9.3007 0.655551 9.53016 0.706981 9.72006 0.536865C9.73984 0.790061 9.76753 1.04326 9.76753 1.29645C9.76753 2.24594 9.76753 3.19542 9.76753 4.1449C9.76753 4.49305 9.76753 4.50096 9.43917 4.50096H6.385C5.69662 4.50096 5.00824 4.50096 4.31987 4.50096C4.15371 4.50096 4.06667 4.52074 4.07063 4.72646C4.07063 6.38806 4.07063 8.04966 4.07063 9.71125C4.07063 9.93676 4.18932 9.91698 4.33569 9.91698C5.38013 9.91698 6.42456 9.91698 7.46503 9.91698C7.71032 9.91698 7.78944 9.96049 7.78549 10.2256C7.7657 11.3175 7.78549 12.4094 7.78549 13.5013C7.78549 13.7149 7.7301 13.7782 7.51251 13.7743C6.44434 13.7743 5.37617 13.7743 4.308 13.7743C4.1181 13.7743 4.07459 13.8376 4.07459 14.0156C4.07459 15.2736 4.07459 16.5317 4.07459 17.7898V23.3284C4.07459 23.6172 4.07459 23.6133 3.71457 23.5935C3.52863 23.5935 3.31895 23.5935 3.14488 23.5935C2.38925 23.5935 1.62966 23.5935 0.870078 23.5935C0.709862 23.5858 0.549465 23.6045 0.395336 23.6489C0.304343 23.6805 0.241044 23.7715 0.233132 23.6054C0.22522 23.4392 0.233132 23.2295 0.233132 23.0396L0.22522 12.0533Z" fill="#4A5C5F"/>
<path d="M48.368 14.0986V5.12998C48.368 4.48512 48.368 4.48512 47.6915 4.48512H45.4839C44.9499 4.48512 44.9499 4.48512 44.9499 3.91147C44.9499 3.0332 44.9499 2.15888 44.9499 1.28061C44.9484 1.11975 44.9312 0.959414 44.8984 0.801913C44.8628 0.600147 44.8984 0.552673 45.1239 0.592235C45.2818 0.622136 45.442 0.638023 45.6026 0.639709H54.9946C55.1924 0.639709 55.4179 0.714877 55.5722 0.509155C55.592 0.738614 55.6316 0.968073 55.6316 1.19357C55.6316 2.21427 55.6316 3.23497 55.6316 4.25566C55.6316 4.4416 55.5762 4.49303 55.3942 4.49303C54.421 4.49303 53.4477 4.49303 52.4745 4.49303C52.253 4.49303 52.1976 4.56029 52.2055 4.76996C52.2055 5.16558 52.2055 5.5612 52.2055 5.98056V23.0475C52.2055 23.2374 52.2055 23.4431 52.2055 23.6172C52.2055 23.6172 52.1224 23.6528 52.0789 23.6489C51.9263 23.6142 51.7717 23.5891 51.616 23.5737C50.7378 23.5737 49.8595 23.5737 48.9812 23.5737C48.8233 23.5642 48.6652 23.5898 48.5183 23.6489C48.3759 23.7161 48.368 23.6489 48.368 23.5618C48.368 23.3719 48.368 23.1662 48.368 22.9921V14.0986Z" fill="#4A5C5F"/>
</svg>
