<svg width="93" height="93" viewBox="0 0 93 93" fill="none" xmlns="http://www.w3.org/2000/svg">
<path d="M33.1574 15.3176H60.1971V24.3653H68.3267V11.2528C68.3267 9.00817 66.5068 7.18805 64.2619 7.18805H29.0926C26.8477 7.18805 25.0278 9.00817 25.0278 11.2528V24.3653H33.1576V15.3176H33.1574Z" fill="#094972"/>
<path d="M81.9279 24.3652H68.3266H60.1971H33.1573H25.0275H11.0721C4.95699 24.3652 0 29.322 0 35.4371V74.7398C0 80.8549 4.95699 85.8119 11.0721 85.8119H81.9279C88.043 85.8119 93 80.8549 93 74.7398V35.4373C93 29.3222 88.043 24.3652 81.9279 24.3652ZM46.9049 74.1246C37.1483 74.1246 29.2383 66.2151 29.2383 56.4583C29.2383 46.7015 37.1481 38.792 46.9049 38.792C56.6619 38.792 64.5712 46.7015 64.5712 56.4583C64.5712 66.2151 56.6619 74.1246 46.9049 74.1246Z" fill="#A2D9D9"/>
<path d="M46.9047 38.7921C37.1481 38.7921 29.2382 46.7016 29.2382 56.4584C29.2382 66.2152 37.1479 74.1247 46.9047 74.1247C56.6617 74.1247 64.5709 66.2152 64.5709 56.4584C64.5709 46.7016 56.6617 38.7921 46.9047 38.7921ZM57.1648 57.3329C57.1648 58.7777 55.9939 59.9489 54.5488 59.9489H50.3955V64.1023C50.3955 65.5473 49.2243 66.7185 47.7792 66.7185H46.0297C44.5848 66.7185 43.4134 65.5473 43.4134 64.1023V59.9489H39.2598C37.8155 59.9489 36.6438 58.7777 36.6438 57.3329V55.5836C36.6438 54.1388 37.8157 52.9673 39.2598 52.9673H43.4134V48.814C43.4134 47.369 44.5848 46.198 46.0297 46.198H47.7792C49.2243 46.198 50.3955 47.3692 50.3955 48.814V52.9673H54.5488C55.9939 52.9673 57.1648 54.1388 57.1648 55.5836V57.3329Z" fill="#A2D9D9"/>
<path d="M54.5492 52.9673H50.3959V48.814C50.3959 47.3689 49.2247 46.198 47.7796 46.198H46.03C44.5852 46.198 43.4138 47.3692 43.4138 48.814V52.9673H39.2602C37.8159 52.9673 36.6442 54.1388 36.6442 55.5836V57.3329C36.6442 58.7777 37.8161 59.9489 39.2602 59.9489H43.4138V64.1022C43.4138 65.5473 44.5852 66.7185 46.03 66.7185H47.7796C49.2247 66.7185 50.3959 65.5473 50.3959 64.1022V59.9489H54.5492C55.9942 59.9489 57.1652 58.7777 57.1652 57.3329V55.5836C57.1652 54.1388 55.9942 52.9673 54.5492 52.9673Z" fill="#A2D9D9"/>
<path d="M43.9497 64.0186C43.4865 64.0186 43.0576 63.7577 42.8471 63.3371L39.499 56.6481L37.6353 59.5159C37.4077 59.8659 37.0185 60.0772 36.601 60.0772H27.2476C26.5663 60.0771 26.014 59.5249 26.014 58.8437C26.014 58.1625 26.5663 57.6102 27.2476 57.6102H35.9315L38.6039 53.4982C38.8449 53.1274 39.2668 52.915 39.7074 52.9387C40.149 52.9635 40.5434 53.2228 40.7413 53.6182L43.5907 59.3109L46.484 48.3402C46.6176 47.8338 47.0565 47.4668 47.5787 47.4252C48.1001 47.3834 48.5924 47.6762 48.8046 48.155L50.9172 52.9224L52.6952 50.1666C52.9209 49.8171 53.3074 49.6046 53.7236 49.6018C54.1455 49.5976 54.529 49.8062 54.7593 50.1527L56.6087 52.9366H66.0126C66.6939 52.9366 67.2461 53.4888 67.2461 54.1701C67.2461 54.8513 66.6939 55.4035 66.0126 55.4035H55.9471C55.5339 55.4035 55.1482 55.1966 54.9195 54.8526L53.7468 53.0872L51.7516 56.1797C51.5059 56.5606 51.0705 56.7763 50.6189 56.7408C50.167 56.7056 49.7708 56.4252 49.5871 56.0108L47.973 52.3683L45.1429 63.0996C45.0121 63.5957 44.5876 63.9591 44.0772 64.0119C44.0344 64.0163 43.992 64.0186 43.9497 64.0186Z" fill="#094972"/>
<path d="M45.9758 72.9693C45.7965 72.9693 45.6172 72.9303 45.451 72.8521C39.5668 70.0865 33.66 64.9804 30.0357 59.5264C29.7841 59.1478 29.7611 58.6615 29.976 58.2609C30.1908 57.8603 30.6086 57.6103 31.0631 57.6103H35.9316L38.6039 53.4982C38.8449 53.1274 39.2665 52.9139 39.7075 52.9387C40.1491 52.9635 40.5434 53.2228 40.7414 53.6182L43.5908 59.3109L46.4841 48.3402C46.6177 47.8338 47.0566 47.4668 47.5788 47.4252C48.1002 47.3834 48.5925 47.6762 48.8047 48.155L50.9173 52.9224L52.6953 50.1666C52.921 49.8171 53.3075 49.6046 53.7236 49.6018C53.7264 49.6018 53.7292 49.6018 53.7319 49.6018C54.1449 49.6018 54.5308 49.8085 54.7595 50.1528L56.9748 53.4877C57.3518 54.0552 57.1973 54.8207 56.6299 55.1976C56.0623 55.5745 55.2967 55.42 54.9198 54.8527L53.747 53.0873L51.7518 56.1799C51.5059 56.5608 51.07 56.7764 50.6191 56.741C50.1672 56.7057 49.7711 56.4253 49.5874 56.0109L47.9733 52.3684L45.1432 63.0996C45.0123 63.5958 44.5878 63.9592 44.0774 64.012C43.5661 64.0644 43.077 63.796 42.8473 63.3372L39.4992 56.6482L37.6355 59.516C37.408 59.866 37.0187 60.0773 36.6012 60.0773H33.4796C36.7458 64.237 41.4161 68.1032 45.9759 70.3661C50.2163 68.2612 54.625 64.7316 57.8663 60.8305C58.3017 60.3065 59.0793 60.2346 59.6034 60.6699C60.1274 61.1053 60.1993 61.8829 59.764 62.4068C56.169 66.7338 51.2107 70.6384 46.5006 72.8522C46.3344 72.9303 46.155 72.9693 45.9758 72.9693Z" fill="#094972"/>
<path d="M39.6382 54.1703L43.9502 62.7851L47.6768 48.6548L50.715 55.5112L53.7318 50.8353L55.9472 54.1703H63.3314C63.6344 53.3635 63.8726 52.5588 64.0355 51.7624C64.2034 50.9396 64.2944 50.1213 64.2944 49.3206C64.2944 43.3092 59.4872 38.4333 53.5562 38.4333C50.5983 38.4333 47.9201 39.6478 45.9756 41.6095C44.0312 39.6477 41.353 38.4333 38.395 38.4333C32.4642 38.4333 27.6568 43.3092 27.6568 49.3206C27.6568 50.1213 27.7478 50.9396 27.9157 51.7624C28.3945 54.1038 29.5159 56.5157 31.0629 58.8438H36.6008L39.6382 54.1703Z" fill="#F05F62"/>
<path d="M43.9496 64.0186C43.4863 64.0186 43.0574 63.7577 42.8469 63.3373L39.4988 56.6483L37.6352 59.5161C37.4076 59.8661 37.0184 60.0774 36.6008 60.0774H31.0629C30.6498 60.0774 30.264 59.8707 30.0355 59.5265C28.3187 56.9433 27.1991 54.4141 26.7072 52.0097C26.5189 51.0858 26.4233 50.1813 26.4233 49.3207C26.4233 42.6373 31.7938 37.2 38.3951 37.2C41.1889 37.2 43.8397 38.1648 45.9756 39.9387C48.1116 38.1648 50.7624 37.2 53.5562 37.2C60.1575 37.2 65.5279 42.6373 65.5279 49.3207C65.5279 50.1817 65.4324 51.0861 65.2442 52.0091C65.0723 52.8492 64.8173 53.7222 64.4863 54.6039C64.3057 55.085 63.8454 55.4037 63.3315 55.4037H55.9471C55.5339 55.4037 55.1482 55.1969 54.9196 54.8528L53.7468 53.0874L51.7515 56.18C51.5058 56.5609 51.0705 56.7765 50.6189 56.7411C50.1669 56.7058 49.7708 56.4254 49.5871 56.011L47.973 52.3684L45.1429 63.0997C45.012 63.5959 44.5875 63.9593 44.0771 64.012C44.0343 64.0163 43.9918 64.0186 43.9496 64.0186ZM39.6379 52.9368C39.6609 52.9368 39.684 52.9375 39.7072 52.9389C40.1489 52.9637 40.5432 53.2229 40.7412 53.6183L43.5905 59.311L46.4839 48.3404C46.6175 47.8339 47.0564 47.467 47.5785 47.4254C48.1 47.3836 48.5923 47.6764 48.8045 48.1552L50.9171 52.9226L52.6951 50.1668C52.9208 49.8172 53.3073 49.6048 53.7234 49.602C54.1454 49.5978 54.5291 49.8064 54.7592 50.1528L56.6085 52.9368H62.4538C62.6076 52.4523 62.7325 51.9765 62.8269 51.5151C62.982 50.7546 63.0607 50.0161 63.0607 49.3205C63.0607 43.9973 58.7971 39.6666 53.5562 39.6666C51.0296 39.6666 48.6484 40.6649 46.8519 42.4776C46.6202 42.7113 46.3049 42.8428 45.9757 42.8428C45.6466 42.8428 45.3312 42.7113 45.0995 42.4776C43.303 40.6649 40.9219 39.6666 38.3952 39.6666C33.1543 39.6666 28.8906 43.9973 28.8906 49.3205C28.8906 50.0159 28.9693 50.7544 29.1246 51.5159C29.5183 53.4411 30.3954 55.4891 31.7337 57.6103H35.9314L38.6038 53.4982C38.832 53.1469 39.222 52.9368 39.6379 52.9368Z" fill="#094972"/>
</svg>
