<svg width="101" height="30" viewBox="0 0 101 30" fill="none" xmlns="http://www.w3.org/2000/svg">
<path d="M0.741118 14.9282V1.14053C0.741118 0.320264 0.687927 0.348259 1.55158 0.348259C3.83787 0.348259 6.12415 0.348259 8.41043 0.348259C9.12432 0.348259 9.12292 0.348259 9.32588 1.02435C10.4616 4.79251 11.5982 8.55975 12.7357 12.3261C13.6409 15.3122 14.5531 18.2947 15.4723 21.2734C15.5049 21.3848 15.5442 21.4941 15.5898 21.6009C15.6164 21.6611 15.6878 21.7605 15.7088 21.7535C15.7911 21.7326 15.8631 21.683 15.9118 21.6135C15.9855 21.4425 16.0459 21.2661 16.0923 21.0858C17.9764 14.4061 19.8582 7.72689 21.7376 1.04814C21.9308 0.359457 21.9308 0.348259 22.6321 0.348259C25.0355 0.348259 27.4375 0.370655 29.8408 0.348259C30.4973 0.348259 30.4637 0.488235 30.4637 0.979553C30.4637 2.61168 30.4637 4.24474 30.4637 5.87873C30.4637 13.3917 30.4637 20.9038 30.4637 28.415C30.4637 29.6538 30.4637 29.483 29.4167 29.4872C28.017 29.4928 26.6172 29.4928 25.2174 29.4872C24.5175 29.4872 24.5049 29.4746 24.5035 28.7873C24.5035 26.6653 24.5035 24.5418 24.5035 22.4198C24.5035 18.4528 24.5035 14.4868 24.5035 10.5218C24.5108 10.2884 24.5061 10.0548 24.4895 9.82187C24.4797 9.72949 24.393 9.6441 24.3412 9.55452C24.2676 9.63401 24.208 9.72534 24.1648 9.82467C23.9394 10.8227 23.7869 11.8417 23.4971 12.8216C22.7202 15.4573 21.9028 18.0819 21.0685 20.7009C20.1979 23.4752 19.2726 26.2355 18.3782 29.0015C18.276 29.3136 18.1472 29.5054 17.7511 29.4984C16.2351 29.4732 14.7178 29.4984 13.2018 29.4886C12.6979 29.4886 12.6517 29.448 12.5019 28.9861C11.7517 26.6821 10.9958 24.3822 10.2623 22.074C9.39447 19.3487 8.51542 16.6261 7.70075 13.8854C7.31022 12.5934 7.06806 11.2664 6.76011 9.94785C6.69992 9.69589 6.73771 9.38795 6.43397 9.24797C6.41157 9.49573 6.36958 9.74349 6.36958 9.98984C6.36958 16.2421 6.36958 22.4944 6.36958 28.7467C6.36958 28.8405 6.36958 28.9343 6.36958 29.0267C6.38637 29.3528 6.2296 29.4914 5.90905 29.4872C5.30295 29.4774 4.69686 29.4872 4.08936 29.4872C3.17951 29.4872 2.26966 29.4872 1.35981 29.4872C0.757915 29.4872 0.752316 29.4774 0.749517 28.8517C0.749517 27.8495 0.749517 26.8458 0.749517 25.8422L0.741118 14.9282Z" fill="#4A5C5F"/>
<path d="M54.2038 14.9058V1.25949C54.2038 0.35104 54.2038 0.34964 55.1318 0.34964H59.5411C59.6811 0.34964 59.821 0.34964 59.961 0.34964C60.241 0.34964 60.4005 0.46582 60.3935 0.76957C60.3935 0.955738 60.3935 1.14331 60.3935 1.32948C60.3935 6.01869 60.3935 10.7079 60.3935 15.3971C60.4111 15.6689 60.4466 15.9391 60.4999 16.2062C60.8597 16.1768 60.9688 15.8548 61.155 15.6337C63.0298 13.4015 64.8994 11.1656 66.7639 8.926C66.8642 8.7846 66.9977 8.67003 67.1527 8.59241C67.3077 8.51478 67.4794 8.47648 67.6527 8.48088C69.4248 8.49908 71.1983 8.48088 72.9718 8.48088C73.0183 8.47442 73.0654 8.47442 73.1118 8.48088C73.2406 8.51727 73.3652 8.56067 73.4911 8.60266C73.4566 8.72754 73.4043 8.84681 73.3358 8.9568C72.9298 9.43692 72.5085 9.90304 72.0942 10.3762C70.4649 12.2337 68.8467 14.1023 67.195 15.9444C66.915 16.2482 66.9906 16.4665 67.146 16.7479C67.8067 17.9489 68.466 19.1518 69.1239 20.3565C70.4271 22.7501 71.7218 25.1465 73.0306 27.5373C73.3204 28.0692 73.6591 28.5731 73.9545 29.1022C74.128 29.4116 74.0874 29.4816 73.7571 29.483C71.9136 29.49 70.0701 29.483 68.228 29.4914C67.8277 29.4914 67.6527 29.2604 67.4903 28.9581C66.6505 27.3973 65.8008 25.8436 64.9708 24.2786C64.6124 23.604 64.3143 22.8985 63.9517 22.2266C63.7262 21.8476 63.478 21.4825 63.2085 21.1334C63.0825 20.957 62.9285 20.9934 62.7969 21.1264C62.573 21.3629 62.3532 21.6051 62.1362 21.8486C61.6533 22.3862 61.183 22.9335 60.6903 23.4612C60.5802 23.5795 60.4957 23.7193 60.442 23.8717C60.3883 24.0242 60.3666 24.186 60.3781 24.3472C60.3949 25.8408 60.3893 27.3343 60.3851 28.8265C60.3851 29.4676 60.3655 29.4844 59.7077 29.4858C58.0979 29.4858 56.4882 29.4858 54.8785 29.4858C54.208 29.4858 54.1968 29.4718 54.1968 28.7593C54.1996 24.1429 54.2019 19.525 54.2038 14.9058Z" fill="#4A5C5F"/>
<path d="M51.7458 20.1578C51.7458 21.5337 51.7122 22.9111 51.7556 24.2871C51.7976 25.6098 51.911 26.9326 52.0132 28.254C52.0527 28.5545 52.1235 28.8501 52.2245 29.1359C52.3001 29.3906 52.1993 29.4844 51.96 29.4886H51.68C50.0703 29.4886 48.4605 29.4886 46.8522 29.4886C46.2181 29.4886 46.1299 29.4256 45.9956 28.8125C45.9018 28.3828 45.864 27.9405 45.7996 27.5037C45.766 27.2742 45.7436 27.0404 45.6876 26.815C45.6148 26.5225 45.4846 26.4889 45.2677 26.7059C44.6627 27.3163 44.0019 27.8689 43.294 28.3562C42.2579 29.0335 41.0867 29.4768 39.8618 29.6552C38.874 29.8327 37.862 29.8275 36.8761 29.6398C34.3355 29.1233 32.436 27.1356 32.359 24.4242C32.2723 21.3336 33.8134 19.3235 36.4674 18.0189C38.3906 17.0727 40.4539 16.5996 42.5619 16.3056C43.392 16.1894 44.2263 16.104 45.0591 16.0117C45.661 15.9459 45.6554 15.9347 45.6862 15.3412C45.7324 14.4369 45.4692 13.681 44.698 13.1603C44.1773 12.809 43.5698 12.732 42.9651 12.718C41.1272 12.6732 39.4167 13.1645 37.8139 14.0394C37.2623 14.3382 36.7264 14.6652 36.2084 15.0192C35.9284 15.2166 35.7647 15.1592 35.5785 14.9072C34.9262 14.0002 34.2571 13.1043 33.6034 12.1987C33.2955 11.7788 33.3011 11.7438 33.707 11.4078C35.4725 9.941 37.5743 8.93487 39.824 8.47951C41.1683 8.18862 42.5416 8.05289 43.9169 8.07498C45.1473 8.10298 46.3749 8.24715 47.5563 8.68248C49.4642 9.38236 50.6932 10.7233 51.2979 12.6466C51.6334 13.7884 51.786 14.9761 51.75 16.1656C51.7346 17.4982 51.7458 18.8252 51.7458 20.1578ZM45.6736 21.3448H45.6904C45.6904 20.7611 45.6904 20.1788 45.6904 19.5951C45.6904 19.3557 45.5938 19.2465 45.3545 19.2773C44.9849 19.3235 44.6168 19.3781 44.2472 19.4173C43.0441 19.5557 41.8637 19.8483 40.7352 20.2879C39.9486 20.6085 39.2487 21.0648 38.7462 21.7647C37.8321 23.0609 38.6062 24.9296 40.1613 25.0961C42.0916 25.3019 43.8679 24.8736 45.3979 23.6096C45.4906 23.5427 45.5648 23.4535 45.6138 23.3502C45.6627 23.2469 45.6848 23.133 45.6778 23.0189C45.6736 22.4646 45.6736 21.9047 45.6736 21.3448Z" fill="#4A5C5F"/>
<path d="M85.7629 20.6729C83.6408 20.6729 81.5183 20.6729 79.3954 20.6729C78.827 20.6729 78.8173 20.6855 78.9278 21.2118C79.1084 22.0754 79.282 22.9363 79.7957 23.6921C80.511 24.742 81.4978 25.3243 82.7268 25.537C84.1644 25.7862 85.5473 25.5552 86.9079 25.0667C87.9341 24.6816 88.8938 24.1385 89.7522 23.457C90.1036 23.1868 90.1134 23.1868 90.3653 23.5676C90.9831 24.5007 91.5966 25.4372 92.206 26.3769C92.4748 26.7968 92.4706 26.7968 92.0982 27.0964C90.4017 28.45 88.4588 29.2548 86.3354 29.6328C85.1876 29.8357 84.0286 29.9841 82.8598 29.9127C81.0569 29.7979 79.3016 29.476 77.6806 28.6235C75.721 27.5905 74.3114 26.0284 73.5583 23.9623C72.4903 21.034 72.3643 18.0329 73.326 15.05C74.3688 11.7969 76.621 9.72669 79.8279 8.63907C80.8887 8.27742 82.0008 8.08838 83.1215 8.07916C84.958 8.07916 86.7399 8.40951 88.3455 9.37954C90.1651 10.4798 91.3312 12.0909 92.01 14.0772C92.4276 15.2653 92.6746 16.5066 92.7435 17.7641C92.7799 18.5074 92.8415 19.2507 92.8597 19.994C92.8765 20.6421 92.8401 20.6659 92.1976 20.6673C90.055 20.6747 87.9101 20.6766 85.7629 20.6729ZM83.1285 17.0195C84.3883 17.0195 85.6481 17.0195 86.9009 17.0195C87.2033 17.0195 87.3376 16.9341 87.2634 16.6121C87.1585 16.1614 87.0969 15.6981 86.9681 15.2558C86.4782 13.576 85.3556 12.6186 83.6087 12.4786C82.0157 12.3512 80.7461 12.9531 79.8755 14.3179C79.4837 14.954 79.2092 15.6552 79.065 16.3882C78.9502 16.9145 79.0216 17.0055 79.5675 17.0097C80.7531 17.0251 81.9415 17.0195 83.1285 17.0195Z" fill="#4A5C5F"/>
<path d="M97.7267 8.48651C98.6365 8.48651 99.5464 8.48651 100.455 8.48651C100.948 8.48651 100.991 8.52011 100.994 8.98903C101.002 10.6687 101.002 12.3485 100.994 14.0282C100.994 14.4593 100.934 14.5153 100.501 14.5167C98.6132 14.5251 96.7249 14.5251 94.8362 14.5167C94.4064 14.5167 94.3658 14.4733 94.363 14.0184C94.3547 12.362 94.3547 10.707 94.363 9.05342C94.363 8.5341 94.4134 8.49351 94.9314 8.49351C95.8636 8.48371 96.7958 8.49351 97.7309 8.49351L97.7267 8.48651Z" fill="#4A5C5F"/>
<path d="M97.6147 29.49C96.7077 29.49 95.795 29.4984 94.8922 29.49C94.4261 29.49 94.3659 29.4312 94.3631 28.9609C94.3519 27.3082 94.3519 25.656 94.3631 24.0043C94.3631 23.5228 94.4177 23.4696 94.8838 23.4668C96.7693 23.457 98.6534 23.4668 100.539 23.4668C100.866 23.4668 100.997 23.6068 100.995 23.9315C100.995 25.6308 100.995 27.3301 100.987 29.0281C100.987 29.448 100.92 29.4942 100.476 29.4984C99.5226 29.5082 98.568 29.4984 97.6133 29.4984L97.6147 29.49Z" fill="#4A5C5F"/>
</svg>
