<svg width="157" height="33" viewBox="0 0 157 33" fill="none" xmlns="http://www.w3.org/2000/svg">
<path d="M0.72345 0.549195C0.853141 0.545288 0.983614 0.537476 1.11409 0.537476H31.9744V32.4963C31.8291 32.5033 31.7033 32.515 31.5768 32.515H1.03596C0.93205 32.515 0.828141 32.5072 0.72345 32.5033V0.549195ZM7.93227 27.4399C8.32291 27.4782 8.7862 27.5594 9.25028 27.5602C10.1339 27.5602 11.0167 27.4993 11.9004 27.5008C12.3777 27.5008 12.6598 27.2782 12.8246 26.8696C12.9213 26.629 12.9974 26.3807 13.052 26.1273C13.2754 25.0765 13.4817 24.0179 13.7043 22.9694C14.0793 21.1959 14.4684 19.4248 14.8403 17.6505C15.2442 15.7239 15.6294 13.7934 16.0364 11.8691C16.0966 11.5863 16.163 11.2894 16.3794 11.0378C16.4008 11.0767 16.4191 11.1172 16.4341 11.1589C16.6083 11.9292 16.7841 12.6996 16.9536 13.4715C17.199 14.584 17.4459 15.6965 17.681 16.8122C17.9849 18.2568 18.2748 19.7029 18.5771 21.1498C18.9037 22.7087 19.235 24.2669 19.5709 25.8242C19.649 26.1781 19.7491 26.5274 19.8584 26.8727C19.9912 27.2914 20.2733 27.5157 20.7319 27.4977C20.8999 27.4907 21.0686 27.5282 21.2374 27.5305C22.0687 27.5407 22.9007 27.5602 23.732 27.5461C24.1047 27.5399 24.4765 27.4625 24.8133 27.4219C25.1875 27.0797 25.282 26.9282 25.3922 26.393C25.5711 25.5437 25.7406 24.6929 25.911 23.8421C26.1578 22.6108 26.4037 21.379 26.6485 20.1467C26.8969 18.8888 27.1407 17.6302 27.3907 16.3724C27.6626 15.0004 27.9373 13.6288 28.2149 12.2574C28.4879 10.912 28.7637 9.56719 29.0423 8.22288C29.2236 7.34941 29.4087 6.47673 29.5947 5.59076H25.6789C24.6351 11.4581 23.8039 17.3404 22.6398 23.1694C22.5827 23.0523 22.539 22.9291 22.5093 22.8022C22.3366 22.0991 22.1585 21.396 21.996 20.6881C21.7679 19.6902 21.5468 18.6912 21.3327 17.6911C21.028 16.2598 20.7282 14.8275 20.4334 13.3941C20.1595 12.0753 19.8871 10.756 19.6162 9.4362C19.4303 8.53617 19.2592 7.63223 19.0545 6.73611C18.9522 6.28688 18.7607 5.87202 18.2459 5.61732C17.9615 5.60248 17.6115 5.57435 17.2623 5.5681C16.7544 5.55951 16.2466 5.55717 15.7388 5.5681C15.402 5.57592 15.0653 5.61107 14.7286 5.63451C14.6172 5.64277 14.51 5.6798 14.4173 5.74197C14.3245 5.80415 14.2496 5.88935 14.1997 5.98921C14.0936 6.18238 14.0095 6.38678 13.9489 6.59861C13.8621 6.89627 13.8028 7.20253 13.7371 7.50567C13.4663 8.77289 13.1965 10.0399 12.9277 11.3066C12.5501 13.0931 12.1751 14.8801 11.8027 16.6677C11.4441 18.3794 11.091 20.0912 10.7269 21.8014C10.6308 22.2514 10.5089 22.696 10.2628 23.1108C9.68936 20.2022 9.20028 17.2825 8.7073 14.3645C8.21431 11.4464 7.76977 8.51585 7.301 5.58607H3.06727C3.08134 5.71967 3.08368 5.83452 3.10712 5.94468C3.48526 7.7252 3.87277 9.51276 4.23919 11.3019C4.72592 13.6879 5.19468 16.077 5.67204 18.4654C6.19289 21.0696 6.71374 23.6739 7.23459 26.2781C7.32131 26.6969 7.44241 27.1125 7.93227 27.4399Z" fill="#4A5C5F"/>
<path d="M94.2873 0.59529V32.4916H63.0528C63.0385 32.4804 63.0252 32.4681 63.0129 32.4549C63.0043 32.4455 62.9986 32.4339 62.9965 32.4213C62.9929 21.8767 62.9887 11.3321 62.984 0.787483C62.984 0.7242 62.9934 0.660136 62.9973 0.607009C63.02 0.587477 63.0285 0.578102 63.0387 0.570289C63.0489 0.562476 63.0606 0.553101 63.0715 0.553101C73.3562 0.547893 83.6422 0.542684 93.9295 0.537476C94.0201 0.537476 94.1116 0.537476 94.2022 0.547632C94.2209 0.549976 94.242 0.57107 94.2873 0.59529ZM84.1636 17.3794C84.3386 17.3013 84.4628 17.231 84.5949 17.1817C84.9347 17.0544 85.2753 16.9286 85.6199 16.813C86.2832 16.5911 86.7535 16.1497 87.0965 15.552C87.4916 14.8461 87.7098 14.0551 87.7325 13.2465C87.7871 12.0003 87.8106 10.7511 87.6793 9.50416C87.6219 8.90967 87.4766 8.327 87.2481 7.7752C86.8348 6.80486 86.1543 6.115 85.1113 5.82202C84.523 5.65751 83.9151 5.57341 83.3042 5.57201C79.0077 5.55951 74.7107 5.55716 70.4132 5.56498C70.3139 5.56498 70.2139 5.58217 70.092 5.59388V5.96655C70.0978 13.1137 70.1032 20.2605 70.1085 27.4071C70.1103 27.4195 70.1161 27.431 70.1249 27.4399C70.1346 27.4503 70.1457 27.4595 70.1577 27.4672H74.3891V20.8155C74.3891 20.4904 74.3812 20.1647 74.3891 19.8389C74.3977 19.5334 74.3422 19.2217 74.432 18.9138C74.5102 18.9076 74.5773 18.8982 74.6414 18.8982C76.9722 18.8982 79.3025 18.8982 81.6323 18.8982C82.0929 18.9017 82.5358 19.0766 82.8745 19.3888C83.1168 19.5931 83.2707 19.8831 83.3042 20.1982C83.3503 20.7022 83.3643 21.2092 83.3893 21.7155C83.3964 21.8585 83.3893 22.0022 83.3995 22.1452C83.4706 23.0897 83.5495 24.0335 83.6151 24.9789C83.6558 25.5492 83.6722 26.1203 83.7104 26.6906C83.7276 26.9469 83.7722 27.2008 83.8065 27.4719H87.8692C87.8777 27.4294 87.8827 27.3863 87.884 27.343C87.8387 26.8914 87.7676 26.4414 87.7489 25.9891C87.7098 25.0406 87.7028 24.0913 87.6707 23.1429C87.6543 22.6108 87.616 22.0796 87.5926 21.5475C87.5509 20.8742 87.4406 20.207 87.2637 19.556C87.1677 19.1207 86.9356 18.7273 86.6012 18.4326C86.2826 18.1635 85.916 17.9573 85.5207 17.8247C85.1011 17.6755 84.6659 17.5427 84.1636 17.3794Z" fill="#4A5C5F"/>
<path d="M125.38 0.554657H156.935C157.003 0.85701 157.026 31.8713 156.964 32.4564C156.955 32.4663 156.946 32.4755 156.935 32.4838C156.927 32.4928 156.916 32.4991 156.903 32.5018C156.839 32.508 156.774 32.515 156.709 32.515C146.309 32.515 135.908 32.515 125.506 32.515C125.469 32.5108 125.433 32.5024 125.398 32.49C125.327 32.2064 125.306 1.11092 125.38 0.554657ZM132.474 27.4914H132.942C136.132 27.4914 139.322 27.4914 142.511 27.4914C143.342 27.4892 144.173 27.4428 144.999 27.3524C145.722 27.2784 146.433 27.1151 147.116 26.8664C148.432 26.3813 149.43 25.5336 149.999 24.2359C150.22 23.7381 150.403 23.2244 150.546 22.6991C150.859 21.5272 150.968 20.3272 151.025 19.1209C151.033 18.9513 151.041 18.7826 151.05 18.6138C151.095 17.8755 151.177 17.1372 151.174 16.3989C151.174 15.6473 151.07 14.8973 151.034 14.1457C150.993 13.3027 150.921 12.4644 150.804 11.6277C150.677 10.7282 150.436 9.84846 150.088 9.00961C149.697 8.07208 149.098 7.30409 148.243 6.74938C147.48 6.25406 146.625 5.99155 145.743 5.80482C144.81 5.6056 143.856 5.59232 142.912 5.58372C139.515 5.55481 136.115 5.56888 132.72 5.56888C132.635 5.57412 132.551 5.58509 132.467 5.60169L132.474 27.4914Z" fill="#4A5C5F"/>
<path d="M112.993 14.2879V18.0224C112.607 18.0943 112.232 18.0497 111.86 18.0568C111.469 18.0654 111.079 18.0568 110.688 18.0568H107.26C107.235 18.0961 107.217 18.1391 107.206 18.1841C107.187 19.2498 107.157 20.3162 107.159 21.3826C107.159 22.1491 107.204 22.9155 107.228 23.6851L107.253 23.7093C107.262 23.7186 107.272 23.7265 107.283 23.7327C107.295 23.738 107.308 23.7407 107.321 23.7405H114.313C114.377 23.7405 114.44 23.7319 114.547 23.7257C114.555 23.5952 114.568 23.471 114.568 23.3475C114.568 22.3577 114.568 21.3678 114.568 20.3787C114.568 20.2396 114.586 20.1006 114.598 19.9373H118.64C118.649 19.9451 118.659 19.9537 118.668 19.9631C118.676 19.9724 118.688 19.9826 118.69 19.9928C118.7 20.0569 118.706 20.1216 118.708 20.1865C118.708 22.6475 118.705 25.1083 118.7 27.5688C118.695 27.6053 118.685 27.6411 118.671 27.675C118.363 27.7453 100.638 27.7719 99.8977 27.7016C99.8141 27.3946 99.8711 27.0703 99.8602 26.7523C99.8477 26.4148 99.8563 26.0758 99.8563 25.7367C99.8563 25.4112 99.8563 25.0856 99.8563 24.7601C99.8563 24.4374 99.8563 24.1148 99.8563 23.7577H102.733C102.781 23.7116 102.791 23.703 102.799 23.6929C102.808 23.6841 102.814 23.673 102.817 23.6608C102.823 23.5827 102.83 23.5046 102.83 23.4265C102.83 18.7529 102.827 14.0788 102.821 9.40414C102.821 9.38148 102.801 9.35961 102.772 9.29945H99.9282C99.8399 8.98694 99.8149 6.02903 99.8844 5.37823C99.8938 5.36964 99.9032 5.36026 99.9133 5.35245C99.9235 5.34464 99.9328 5.33135 99.9438 5.33057C100.008 5.32102 100.073 5.31528 100.138 5.31339C106.179 5.31339 112.221 5.31469 118.263 5.31729C118.316 5.32561 118.369 5.33922 118.419 5.35792C118.43 5.4962 118.453 5.64543 118.453 5.79543C118.453 7.76216 118.453 9.72837 118.453 11.6941C118.453 11.9027 118.459 12.1105 118.453 12.3191C118.444 12.424 118.43 12.5283 118.41 12.6316H114.405C114.363 11.5378 114.405 10.4487 114.381 9.36429L114.347 9.33382C114.338 9.32601 114.327 9.31273 114.317 9.31273C112.025 9.307 109.733 9.30257 107.442 9.29945C107.378 9.29945 107.316 9.30882 107.258 9.31351C107.186 9.6104 107.162 13.648 107.229 14.2707C107.698 14.2965 108.178 14.2801 108.655 14.2824C109.132 14.2848 109.618 14.2824 110.1 14.2824H112.991L112.993 14.2879Z" fill="#4A5C5F"/>
<path d="M45.2452 23.746V9.31508C44.7983 9.29867 44.36 9.30883 43.9225 9.30727C43.485 9.30571 43.0373 9.30727 42.5943 9.30727H39.9434C39.9192 7.9791 39.9302 6.67984 39.9356 5.40089L39.9864 5.3548C39.9966 5.34699 40.0067 5.33292 40.0169 5.33292C44.9373 5.32615 49.8576 5.32042 54.7775 5.31573C54.8422 5.31661 54.9067 5.32262 54.9705 5.3337C54.9947 5.3337 55.015 5.35792 55.0369 5.37042C55.115 5.66184 55.1377 8.78303 55.0572 9.2768C54.6267 9.33617 54.1869 9.29555 53.7493 9.30336C53.3118 9.31117 52.8642 9.30336 52.4212 9.30336C51.9782 9.30336 51.536 9.30336 51.093 9.30336H49.7492V23.7101C50.0883 23.7835 50.4375 23.7319 50.7828 23.7413C51.1282 23.7507 51.486 23.7413 51.8376 23.7413H52.9313H53.9861H55.0267C55.1197 24.0382 55.1408 27.1516 55.0548 27.6961C54.9298 27.7063 54.7931 27.7274 54.6564 27.7274C53.2501 27.7315 51.8438 27.7329 50.4375 27.7313C47.0916 27.7313 43.7459 27.7313 40.4005 27.7313H39.9919C39.9137 27.3821 39.9005 24.2882 39.9645 23.7804C40.3028 23.7023 40.6528 23.7554 40.9982 23.746C41.3435 23.7366 41.7013 23.7421 42.0529 23.7421H45.2444L45.2452 23.746Z" fill="#4A5C5F"/>
<path opacity="0.5" d="M7.93228 27.4399C7.44164 27.1125 7.32132 26.6969 7.23616 26.2742C6.7101 23.6699 6.18925 21.0657 5.67361 18.4614C5.19313 16.077 4.72436 13.6879 4.23919 11.3018C3.87277 9.51272 3.48526 7.72517 3.11025 5.94152C3.08681 5.83136 3.08447 5.71651 3.0704 5.58291H7.29788C7.76665 8.51269 8.21432 11.4425 8.70418 14.3613C9.19404 17.2802 9.68624 20.199 10.2597 23.1116C10.5058 22.6967 10.6277 22.2522 10.7238 21.8022C11.0878 20.092 11.441 18.3802 11.7996 16.6684C12.1741 14.8819 12.5491 13.0949 12.9246 11.3073C13.1918 10.0401 13.4616 8.77312 13.734 7.50641C13.7996 7.20327 13.859 6.89701 13.9457 6.59935C14.0064 6.38752 14.0905 6.18312 14.1965 5.98995C14.2464 5.89009 14.3214 5.8049 14.4141 5.74272C14.5069 5.68054 14.6141 5.64351 14.7255 5.63526C15.0622 5.61182 15.3989 5.57666 15.7356 5.56885C16.2435 5.55713 16.7513 5.55947 17.2591 5.56885C17.6084 5.5751 17.9584 5.60322 18.2428 5.61807C18.7576 5.87276 18.9459 6.28762 19.0514 6.73685C19.2561 7.63298 19.4272 8.53379 19.6131 9.43694C19.885 10.7568 20.1574 12.0761 20.4303 13.3949C20.7277 14.8277 21.0275 16.2601 21.3296 17.6919C21.5426 18.693 21.7637 19.6919 21.9929 20.6889C22.1554 21.3959 22.3335 22.0991 22.5062 22.803C22.5359 22.9299 22.5796 23.053 22.6366 23.1702C23.8023 17.3411 24.632 11.4589 25.6758 5.5915H29.5916C29.4056 6.47747 29.2204 7.35015 29.0392 8.22362C28.7616 9.56845 28.4858 10.9133 28.2118 12.2581C27.9337 13.629 27.6589 15.0007 27.3876 16.3731C27.1376 17.6309 26.8938 18.8896 26.6454 20.1474C26.4016 21.3792 26.1558 22.6111 25.9078 23.8429C25.7375 24.6937 25.568 25.5445 25.3891 26.3937C25.2766 26.9289 25.1844 27.0805 24.8102 27.4227C24.4734 27.4633 24.1015 27.5406 23.7289 27.5469C22.8976 27.5609 22.0655 27.5414 21.2343 27.5313C21.0655 27.5313 20.8967 27.4914 20.7288 27.4984C20.2702 27.518 19.9881 27.2938 19.8553 26.8734C19.7459 26.5281 19.6444 26.1789 19.5678 25.825C19.2303 24.2681 18.899 22.71 18.574 21.1506C18.2717 19.7052 17.9818 18.2599 17.6779 16.813C17.4435 15.6973 17.1959 14.5848 16.9505 13.4722C16.781 12.7003 16.6052 11.93 16.431 11.1597C16.416 11.1179 16.3977 11.0774 16.3763 11.0386C16.1599 11.2901 16.0935 11.5854 16.0333 11.8698C15.6263 13.7965 15.2411 15.727 14.8372 17.6513C14.4653 19.4255 14.0762 21.1967 13.7012 22.9702C13.4785 24.0218 13.2723 25.0796 13.0488 26.1281C12.9942 26.3815 12.9182 26.6298 12.8215 26.8703C12.6566 27.2789 12.3746 27.5024 11.8972 27.5016C11.0136 27.5016 10.1308 27.5625 9.24716 27.561C8.78621 27.5594 8.32291 27.4781 7.93228 27.4399Z" fill="white"/>
<path opacity="0.5" d="M84.1636 17.3794C84.6667 17.5427 85.1011 17.6755 85.5285 17.8232C85.9238 17.9557 86.2904 18.162 86.609 18.431C86.9435 18.7257 87.1755 19.1192 87.2715 19.5545C87.4487 20.2054 87.5592 20.8726 87.6012 21.5459C87.6246 22.078 87.6629 22.6093 87.6793 23.1413C87.709 24.0898 87.716 25.039 87.7575 25.9875C87.7762 26.4398 87.8473 26.8899 87.8926 27.3414C87.8912 27.3847 87.8863 27.4279 87.8778 27.4704H83.8151C83.7808 27.2032 83.737 26.9492 83.719 26.6891C83.6808 26.1187 83.6643 25.5476 83.6237 24.9773C83.5581 24.032 83.4792 23.0882 83.4081 22.1436C83.3972 22.0006 83.4081 21.8569 83.3979 21.7139C83.3729 21.2077 83.3589 20.6983 83.3128 20.1967C83.2793 19.8815 83.1254 19.5915 82.8831 19.3873C82.5444 19.075 82.1015 18.9001 81.6408 18.8966C79.31 18.8914 76.9798 18.8914 74.65 18.8966C74.5859 18.8966 74.5219 18.906 74.4406 18.9123C74.3508 19.2201 74.4062 19.5318 74.3977 19.8373C74.3875 20.1631 74.3977 20.4889 74.3977 20.8139V27.4657H70.16C70.148 27.4579 70.137 27.4488 70.1272 27.4383C70.1184 27.4294 70.1127 27.4179 70.1108 27.4055C70.104 20.2594 70.0986 13.1131 70.0944 5.96655V5.59388C70.2163 5.58216 70.3163 5.56497 70.4155 5.56497C74.712 5.56497 79.009 5.56732 83.3065 5.572C83.9172 5.57398 84.5248 5.65861 85.1128 5.82357C86.1566 6.11499 86.8363 6.80486 87.2496 7.77676C87.4782 8.32856 87.6235 8.91123 87.6809 9.50572C87.8137 10.7558 87.7887 12.0058 87.734 13.248C87.7114 14.0566 87.4932 14.8477 87.0981 15.5536C86.7551 16.1512 86.2847 16.5927 85.6214 16.8145C85.2769 16.9302 84.9363 17.056 84.5964 17.1833C84.462 17.231 84.3378 17.2982 84.1636 17.3794ZM74.4023 15.5325C74.5586 15.5395 74.6734 15.5497 74.7883 15.5497C75.8039 15.5497 76.8196 15.5614 77.8353 15.5497C79.2658 15.5348 80.6963 15.5059 82.1276 15.4801C82.6745 15.4708 83.0714 15.2106 83.3128 14.7301C83.4235 14.5238 83.4981 14.2999 83.5331 14.0684C83.6042 13.4504 83.6558 12.8285 83.6815 12.2074C83.6896 11.8307 83.6703 11.4539 83.6237 11.08C83.5962 10.7706 83.5392 10.4645 83.4534 10.1659C83.3445 9.77018 83.0907 9.42993 82.7425 9.21274C82.1604 9.18852 81.5768 9.14555 80.9924 9.14321C78.8962 9.13462 76.7993 9.14321 74.7031 9.14321C74.6023 9.14864 74.5019 9.1596 74.4023 9.17602V15.5325Z" fill="white"/>
<path opacity="0.5" d="M132.474 27.4914V5.59855C132.557 5.58195 132.641 5.57098 132.726 5.56574C136.124 5.56574 139.523 5.55167 142.919 5.58058C143.862 5.58918 144.816 5.60246 145.749 5.80168C146.629 5.98841 147.484 6.25091 148.249 6.74624C149.109 7.30095 149.704 8.06894 150.094 9.00647C150.442 9.84531 150.683 10.725 150.81 11.6245C150.927 12.4613 150.999 13.2996 151.04 14.1426C151.077 14.8942 151.176 15.6442 151.18 16.3958C151.18 17.1341 151.102 17.8724 151.056 18.6107C151.047 18.7794 151.039 18.9482 151.031 19.1177C150.974 20.324 150.866 21.5264 150.552 22.696C150.409 23.2212 150.226 23.735 150.006 24.2327C149.436 25.5304 148.438 26.3781 147.122 26.8633C146.439 27.112 145.728 27.2752 145.005 27.3492C144.179 27.4397 143.348 27.4861 142.517 27.4883C139.328 27.4883 136.138 27.4883 132.949 27.4883L132.474 27.4914ZM136.762 23.8913C136.879 23.9015 136.954 23.914 137.03 23.914C139.256 23.914 141.483 23.9179 143.708 23.914C144.15 23.911 144.589 23.8317 145.005 23.6796C145.559 23.4804 146.034 23.1702 146.292 22.6147C146.412 22.3555 146.511 22.0875 146.59 21.8131C146.795 21.0753 146.9 20.3132 146.902 19.5474C146.912 18.8701 146.928 18.1935 146.913 17.5161C146.877 15.852 147.008 14.1855 146.826 12.5246C146.762 11.8783 146.614 11.2432 146.385 10.6354C146.238 10.2568 145.98 9.93175 145.644 9.70337C145.142 9.34825 144.541 9.15724 143.926 9.15648C141.622 9.14163 139.316 9.14788 137.014 9.14866C136.928 9.15609 136.842 9.17099 136.758 9.1932L136.762 23.8913Z" fill="white"/>
<path d="M74.4023 15.5325V9.17522C74.5019 9.15879 74.6023 9.14784 74.7031 9.14241C76.7993 9.14241 78.8962 9.13538 80.9924 9.14241C81.5768 9.14241 82.1604 9.18772 82.7425 9.21194C83.0907 9.42912 83.3445 9.76938 83.4534 10.1651C83.5392 10.4637 83.5962 10.7698 83.6237 11.0792C83.6703 11.4531 83.6896 11.8299 83.6815 12.2066C83.6558 12.8316 83.6034 13.4496 83.5331 14.0676C83.4981 14.2991 83.4235 14.523 83.3128 14.7293C83.0714 15.2098 82.6729 15.47 82.1276 15.4793C80.6963 15.5051 79.2658 15.534 77.8353 15.5489C76.8196 15.5598 75.804 15.5489 74.7883 15.5489C74.6734 15.5496 74.5594 15.5379 74.4023 15.5325Z" fill="#4A5C5F"/>
<path d="M136.762 23.889V9.18694C136.846 9.16474 136.932 9.14984 137.018 9.14241C139.322 9.14241 141.628 9.13538 143.93 9.15022C144.545 9.15099 145.146 9.342 145.648 9.69712C145.984 9.92549 146.242 10.2506 146.389 10.6292C146.618 11.237 146.766 11.8721 146.83 12.5183C147.012 14.1793 146.881 15.8457 146.917 17.5099C146.932 18.1864 146.917 18.863 146.906 19.5412C146.904 20.307 146.799 21.069 146.594 21.8069C146.515 22.0813 146.416 22.3492 146.296 22.6085C146.038 23.1639 145.562 23.4741 145.009 23.6733C144.593 23.8254 144.154 23.9047 143.712 23.9077C141.486 23.914 139.258 23.9077 137.034 23.9077C136.954 23.9116 136.879 23.8976 136.762 23.889Z" fill="#4A5C5F"/>
</svg>
